<svg width="144" height="134" fill="none" xmlns="http://www.w3.org/2000/svg"><path d="M59.843 7.087C62.53 3.53 66.69.25 72 .25s9.471 3.28 12.156 6.837c2.758 3.639 4.613 8.333 5.228 12.986.615 4.613.103 9.84-2.737 14.094C83.624 38.687 78.55 41.25 72 41.25c-6.56 0-11.623-2.563-14.647-7.083-2.83-4.264-3.352-9.491-2.737-14.094.615-4.653 2.47-9.348 5.227-12.986zM10.807 68.412A20.5 20.5 0 0131 51.5h82a20.498 20.498 0 0120.397 18.47 312.214 312.214 0 01-14.626 13.53c-4.398 3.783-9 7.463-13.089 10.179-2.05 1.353-3.855 2.398-5.361 3.085a8.018 8.018 0 01-2.696.861c-2.644 0-4.428-1.701-8.415-6.037l-.031-.031C85.735 87.826 80.61 82.25 72 82.25c-8.61 0-13.735 5.576-17.179 9.307l-.03.03c-3.998 4.337-5.771 6.038-8.416 6.038a3.12 3.12 0 01-.646-.144 12.767 12.767 0 01-1.763-.697 42 42 0 01-5.299-3.095c-4.059-2.726-8.713-6.427-13.161-10.22A337.085 337.085 0 0110.602 69.95c.052-.523.123-1.025.205-1.538zM10.5 83.89a310.09 310.09 0 008.364 7.4c4.572 3.895 9.553 7.883 14.104 10.927 2.265 1.517 4.53 2.87 6.642 3.864 1.999.933 4.387 1.804 6.765 1.804 7.462 0 12.218-5.227 15.324-8.65l.635-.688C65.973 94.582 68.33 92.5 72 92.5s6.027 2.08 9.666 6.037l.635.687c3.106 3.424 7.862 8.651 15.324 8.651 2.419 0 4.848-.83 6.939-1.783a50.186 50.186 0 006.786-3.875c4.612-3.055 9.583-7.062 14.114-10.968a280.24 280.24 0 008.036-7.195v39.196h5.125a5.126 5.126 0 010 10.25H5.375a5.125 5.125 0 010-10.25H10.5V83.89z" fill="#696969"/></svg>