<svg width="21" height="25" fill="#1E1E1E" xmlns="http://www.w3.org/2000/svg"><path d="M20.781 21.743c0 .532-.43.962-.962.962h-.962v.963a.962.962 0 01-1.924 0v-.963h-.962a.962.962 0 110-1.924h.962v-.962a.962.962 0 111.924 0v.962h.962c.532 0 .962.431.962.962zm0-15.008v9.236a.962.962 0 11-1.924 0V7.697h-1.924v2.886a.962.962 0 01-1.924 0V7.697H5.773v2.886a.962.962 0 11-1.925 0V7.697H1.924v15.008h10.198a.962.962 0 010 1.925H.962A.962.962 0 010 23.668V6.735c0-.532.43-.962.962-.962h2.932C4.276 2.527 7.044 0 10.39 0s6.114 2.527 6.496 5.773h2.932c.532 0 .962.43.962.962zm-5.837-.962a4.625 4.625 0 00-4.553-3.849 4.625 4.625 0 00-4.554 3.849h9.107z"/></svg>