<svg width="50" height="50" fill="none" xmlns="http://www.w3.org/2000/svg"><path d="M10 7.5a5 5 0 00-5 5v20a5 5 0 005 5h18.75v-1.678a11.28 11.28 0 01-.605-.822H10a2.5 2.5 0 01-2.5-2.5v-20A2.5 2.5 0 0110 10h30a2.5 2.5 0 012.5 2.5v6.17c.91.45 1.75 1.025 2.5 1.695V12.5a5 5 0 00-5-5H10z" fill="#000"/><path d="M46.25 28.75a8.75 8.75 0 11-17.5 0 8.75 8.75 0 0117.5 0zM37.5 40c2.313 0 4.462-.7 6.25-1.895V45a1.25 1.25 0 01-2 1l-3.5-2.625a1.25 1.25 0 00-1.5 0L33.25 46a1.25 1.25 0 01-2-1v-6.895A11.195 11.195 0 0037.5 40zm-25-23.75A1.25 1.25 0 0113.75 15h22.5a1.25 1.25 0 010 2.5h-22.5a1.25 1.25 0 01-1.25-1.25zm1.25 11.25a1.25 1.25 0 000 2.5h10a1.25 1.25 0 000-2.5h-10z" fill="#000"/></svg>