<svg width="50" height="49" fill="none" xmlns="http://www.w3.org/2000/svg"><g clip-path="url(#clip0)"><path d="M4.983 14.408L30.696 9.67l4.48 24.084L9.463 38.49l-4.48-24.083z" fill="#90622A"/><path d="M9.918 7.273l-4.932 7.138L14.82 12.6l6.052-1.115 9.834-1.812 4.932-7.138-25.72 4.74z" fill="#7A5324"/><path d="M35.638 2.534l-4.932 7.138 4.482 24.09 4.932-7.137-4.482-24.09z" fill="#7A5324"/><path d="M14.815 12.596l6.05-1.115 1.82 9.784-6.05 1.115-1.82-9.784z" fill="#FCA947"/><path d="M20.872 11.484l-6.052 1.115 4.931-7.138 6.053-1.115-4.932 7.138z" fill="#FCA947"/><path d="M25.252 24.2l1.403.255a2.03 2.03 0 01-.743-1.995 2.052 2.052 0 012.185-1.636l7.407.613-2.945-4.103a1.815 1.815 0 01.798-2.743l-.41-.359a1.837 1.837 0 00-2.5.083 1.815 1.815 0 00-.196 2.347l2.945 4.104-7.407-.614a2.053 2.053 0 00-2.185 1.636 2.045 2.045 0 001.648 2.413zm3.74 9.371l4.973-3.712-4.634 1.065-2.647 1.975a1.756 1.756 0 00-.334 2.491l1.941-.357a1.753 1.753 0 01.701-1.462zM23.57 30.2a1.937 1.937 0 011.5-2.272l8.895-1.897-2.953-.534-8.25 1.76a1.936 1.936 0 00-1.5 2.272 1.946 1.946 0 002.346 1.507l.306-.07a1.91 1.91 0 01-.344-.765z" fill="#7A5324"/><path d="M13.962 30.625l7.407-.614a2.052 2.052 0 012.031 1.186 2.148 2.148 0 00.718-2.055 2.171 2.171 0 00-2.31-1.731l-5.888.488-1.958 2.726zm2.75-6.451c.01.01.017.021.026.031l.349-.486a1.92 1.92 0 00-.207-2.483 1.944 1.944 0 00-2.645-.088L9.088 25.63l-2.177-.867.522 2.803 1.913.762 4.865-4.237a1.838 1.838 0 012.5.083zm8.296 10.752l-3.62-.772-5.887 1.065 5.462 1.164L26 35.455a2.043 2.043 0 00-.991-.53z" fill="#7A5324"/><path d="M1.653 25.265l7.693 3.063 4.865-4.237a1.838 1.838 0 012.5.083c.634.63.716 1.622.196 2.347l-2.945 4.104 7.407-.614a2.053 2.053 0 012.185 1.636 2.045 2.045 0 01-1.648 2.413l-6.405 1.159 8.894 1.896a1.936 1.936 0 011.5 2.273 1.946 1.946 0 01-2.345 1.507l-8.05-1.848 4.974 3.712c.685.51.904 1.435.521 2.197a1.774 1.774 0 01-2.534.698l-6.807-4.31 1.539 3.062c.425.846.08 1.874-.77 2.297-.85.423-1.883.08-2.308-.766L6.27 38.281l-4.616-2.297m46.159-19.906l-7.693 3.063-4.865-4.237a1.838 1.838 0 00-2.5.082 1.815 1.815 0 00-.196 2.348l2.945 4.103-7.407-.614a2.053 2.053 0 00-2.185 1.636 2.045 2.045 0 001.648 2.413l6.405 1.16-8.894 1.896a1.936 1.936 0 00-1.5 2.273 1.946 1.946 0 002.345 1.506l8.05-1.848-4.974 3.712a1.756 1.756 0 00-.521 2.197 1.774 1.774 0 002.534.699l6.807-4.31-1.188 4.137a1.325 1.325 0 00.86 1.623 1.336 1.336 0 001.614-.665l4.1-8.158 4.615-2.297" fill="#FEE6D5"/><path d="M43.892 29.288a.79.79 0 00-.355.35l-4.22 8.357a.584.584 0 01-.703.288.572.572 0 01-.375-.703l1.223-4.238a.78.78 0 00-.287-.844.798.798 0 00-.9-.033l-7.007 4.415c-.25.158-.545.201-.829.123a1.018 1.018 0 01-.343-1.8l5.12-3.802a.78.78 0 00.243-.958.794.794 0 00-.896-.434l-8.287 1.894a1.208 1.208 0 01-1.46-.933c-.128-.639.29-1.27.935-1.408l9.157-1.943a.787.787 0 00.626-.779.787.787 0 00-.65-.759l-6.595-1.187a1.315 1.315 0 01-1.06-1.547 1.316 1.316 0 011.406-1.049l7.626.63a.786.786 0 00.755-.394.779.779 0 00-.045-.843l-3.033-4.203a1.07 1.07 0 01.117-1.395c.404-.4 1.06-.423 1.492-.05l5.01 4.341a.804.804 0 00.815.138l7.92-3.137-.588-1.457-7.47 2.959-1.138-.986-2.854-15.26-.007.002a.766.766 0 00-.107-.286.794.794 0 00-.809-.344L9.84 6.867a.793.793 0 00-.509.327l-5.077 7.311a.776.776 0 00-.126.587l2.257 12.077-4.617-1.828-.588 1.456 7.92 3.137c.28.11.593.056.817-.138l5.009-4.34a1.103 1.103 0 011.492.05c.38.375.43.962.116 1.394l-3.032 4.203a.784.784 0 00.71 1.237l7.626-.63a1.32 1.32 0 011.407 1.05 1.314 1.314 0 01-1.06 1.547l-6.596 1.186a.786.786 0 00-.65.76.785.785 0 00.627.778l9.157 1.944c.644.137 1.063.767.934 1.407a1.21 1.21 0 01-1.46.932l-8.287-1.892a.796.796 0 00-.896.433.779.779 0 00.243.958l5.12 3.802a1.017 1.017 0 01-.343 1.8c-.286.078-.58.035-.829-.122l-7.008-4.416a.8.8 0 00-.956.08.78.78 0 00-.178.933l1.584 3.137a.965.965 0 01-.438 1.3.984.984 0 01-1.313-.434l-3.96-7.842a.79.79 0 00-.355-.35l-4.752-2.354-.71 1.403 4.517 2.236 3.843 7.61a2.54 2.54 0 001.482 1.272 2.579 2.579 0 001.957-.138 2.53 2.53 0 001.146-3.405l-.306-.605 4.596 2.895a2.64 2.64 0 002.102.31 2.613 2.613 0 001.64-1.337 2.571 2.571 0 00-.77-3.229l-2.122-1.576 4.636 1.06a2.8 2.8 0 002.145-.371 2.745 2.745 0 001.225-1.783c.279-1.382-.557-2.735-1.884-3.162l2.973-.545c.026.065.046.132.078.196.33.654.928 1.142 1.64 1.337a2.65 2.65 0 002.102-.31l5.248-3.307-.65 2.252a2.135 2.135 0 001.397 2.622 2.18 2.18 0 002.622-1.075l4.1-8.122 4.517-2.236-.709-1.403-4.751 2.352zM30.919 9.383l-7.922 1.452 3.807-5.483L34.727 3.9l-3.808 5.483zm-14.153 2.594l3.808-5.483 4.027-.738-3.807 5.482-4.028.74zm3.86.887l1.586 8.483-4.672.857-1.586-8.483 4.673-.857zM10.45 8.35l7.922-1.452-3.808 5.482-7.921 1.453L10.45 8.35zm3.433 15.925l-4.644 4.024-1.113-.44-2.297-12.282 8.567-1.57 1.731 9.254a.77.77 0 00.342.5 2.693 2.693 0 00-2.586.514zm7.824 5.873l-5.92.488 2.038-2.826a2.623 2.623 0 00-1.036-3.928c.04.006.076.02.117.02a.764.764 0 00.145-.013l6.23-1.142a.793.793 0 00.509-.327.776.776 0 00.126-.587l-1.73-9.254 8.567-1.57.35 1.87 1.557-.285-.434-2.322 3.808-5.483 2.14 11.447-1.584-1.372a2.705 2.705 0 00-3.656.121 2.623 2.623 0 00-.285 3.415l2.038 2.826-5.92-.488a2.898 2.898 0 00-3.093 2.303 2.832 2.832 0 00.446 2.182 2.89 2.89 0 001.885 1.215l2.66.478-5.247 1.114a2.781 2.781 0 00-2.178 2.41 2.916 2.916 0 00-1.533-.292zm6.468 5.261l-6.808 1.249-1.557-.331 2.659-.479a2.887 2.887 0 001.884-1.214c.289-.422.443-.902.482-1.397.56.258 1.184.334 1.797.194l4.636-1.06-2.122 1.577c-.5.373-.831.894-.97 1.461zM5.5 6.89h1.538c0-2.11 1.726-3.827 3.847-3.827h.77V1.53h-.77c-2.97 0-5.386 2.405-5.386 5.36zm33.85 39.048v1.53h.77c2.97 0 5.385-2.404 5.385-5.359h-1.538c0 2.111-1.726 3.828-3.847 3.828h-.77z" fill="#000"/><path d="M37.812 43.64h-.77v1.532h.77c2.97 0 5.385-2.405 5.385-5.36H41.66c0 2.111-1.726 3.829-3.847 3.829z" fill="#000"/></g><defs><clipPath id="clip0"><path fill="#fff" transform="translate(.114)" d="M0 0h49.238v49H0z"/></clipPath></defs></svg>