<svg width="50" height="50" fill="none" xmlns="http://www.w3.org/2000/svg"><path d="M14.063 6.25v5.053L8.619 8.036l-1.613 2.678L9.984 12.5H4.688v29.688h9.375v-3.126h-6.25V15.625h12.542c1.301-.969 2.901-1.563 4.645-1.563.55 0 1.066.066 1.563.16V12.5h-5.296l2.977-1.786-1.613-2.678-5.444 3.267V6.25h-3.125zM25 17.188c-2.57 0-4.688 2.117-4.688 4.687 0 .55.118 1.069.294 1.563h-3.419v18.75h28.125v-18.75h-3.418a4.58 4.58 0 00.294-1.563c0-2.57-2.118-4.688-4.688-4.688-2.734 0-4.59 2.075-5.81 3.81-.165.23-.295.46-.44.686-.147-.227-.275-.453-.44-.688-1.22-1.733-3.076-3.808-5.81-3.808zm0 3.125c.977 0 2.247 1.048 3.223 2.442.238.34.202.36.391.686H25a1.536 1.536 0 01-1.563-1.563A1.54 1.54 0 0125 20.312zm12.5 0c.884 0 1.563.678 1.563 1.562s-.679 1.563-1.563 1.563h-3.614c.19-.324.153-.344.39-.685.979-1.39 2.247-2.44 3.224-2.44zm-17.188 6.25h9.375v12.5h-9.375v-12.5zm12.5 0h9.376v12.5h-9.376v-12.5z" fill="#000"/></svg>