<svg width="60" height="60" fill="none" xmlns="http://www.w3.org/2000/svg"><rect width="60" height="60" rx="10" fill="#fff"/><path d="M38.88 10.53a.895.895 0 00-.737-.071c-2.506.86-5.005 1.712-7.007 2.394a4.418 4.418 0 00-2.439-1.335c-.249-1.419-1.165-2.645-2.514-3.306l-.247-.12a.888.888 0 00-1.18.384.853.853 0 00.394 1.155l.247.121a2.85 2.85 0 011.51 1.801c-1.858.417-3.27 1.987-3.403 3.898-2.864.975-5.903 2.011-8.915 3.044a.862.862 0 00-.589.812v9.184c0 .356.227.69.59.813l23.555 8.036a.892.892 0 00.597-.007l.089-.02c.486-.11 1.776-.403 2.944-1.343C43.252 34.78 44 33.037 44 30.787v-11.48c0-.237-.058-5.855-5.12-8.777zm-10.993 2.636c1.454 0 2.636 1.158 2.636 2.583 0 1.424-1.182 2.582-2.636 2.582-1.454 0-2.637-1.158-2.637-2.582 0-1.425 1.183-2.583 2.637-2.583zm-4.14 4.025c.607 1.666 2.233 2.863 4.14 2.863 2.423 0 4.394-1.932 4.394-4.305 0-.484-.083-.95-.234-1.384a3836.34 3836.34 0 006.28-2.145c3.87 2.484 3.915 7.04 3.915 7.087 0 3.994-2.937 6.387-3.93 7.082l-4.861-1.667a.894.894 0 00-.8.11.856.856 0 00-.37.703v3.53a.87.87 0 01-.879.86.871.871 0 01-.879-.86V24.33a.862.862 0 00-.59-.814L17.55 19.305c2.1-.719 4.189-1.43 6.196-2.114zm5.019 10.52l-13.008-4.424v-2.77l13.008 4.425v2.77zM15.758 25.11l13.055 4.44c.232 1.193 1.305 2.098 2.59 2.098a2.65 2.65 0 001.714-.624l4.438 1.522v2.77l-21.797-7.437v-2.77zm21.797 5.611L34 29.503a2.54 2.54 0 00.04-.438v-2.316l3.515 1.205v2.767zm4.687.066c0 2.355-.96 3.864-2.93 4.59v-7.571a11.83 11.83 0 002.93-2.935v5.916z" fill="#4E4E4E"/><path d="M38.14 16.437a.87.87 0 00.88-.86.87.87 0 00-.88-.862.87.87 0 00-.878.861.87.87 0 00.879.861zm1.173 4.018a.87.87 0 00.878-.86.87.87 0 00-.879-.862.87.87 0 00-.878.861.87.87 0 00.879.861zm-2.93 3.444a.87.87 0 00.879-.861.87.87 0 00-.88-.861.87.87 0 00-.878.861c0 .476.393.86.879.86zm-1.758-4.018a.87.87 0 00.879-.86.87.87 0 00-.879-.862.87.87 0 00-.879.861.87.87 0 00.879.861z" fill="#F07373"/><path d="M9.85 45.22c.33-.66.7-1.29 1.16-1.88.16-.19.32-.33.58-.29 0 0 .01-.01.01 0 .05.02.64.01.71.02.06 0 .13 0 .18.02.3.06.59.12.88.18.07.02.11.05.12.13.04.17.17.27.32.28.15.01.29-.08.36-.23.1-.21.08-.42-.05-.62-.14-.2-.33-.32-.55-.41-.59-.23-1.2-.31-1.82-.33-.35-.01-.7.04-1.05.07-.61.05-1.21.16-1.79.34-.22.07-.44.15-.65.25-.16.07-.23.23-.21.38.02.16.15.29.32.31.06.01.12.01.18 0 .23-.04.46-.09.69-.13.22-.04.44-.08.69-.12-.16.23-.32.43-.44.65-.43.79-.85 1.59-1.27 2.39-.07.14-.15.24-.31.28-.21.06-.42.15-.63.23a.23.23 0 00-.15.24c0 .11.07.19.18.23.06.01.12.02.17.02.1-.01.21-.02.31-.02-.14.41-.29.81-.41 1.21-.11.37-.24.74-.26 1.13-.01.22.09.38.26.44.17.07.36.01.49-.15.08-.1.15-.22.2-.34.11-.26.2-.52.29-.78.22-.57.43-1.14.64-1.71a.24.24 0 01.1-.1c.38-.06.75-.13 1.13-.17a8.62 8.62 0 011.76.02c.15.02.27-.04.33-.17.06-.12.04-.27-.07-.37a.776.776 0 00-.27-.14c-.33-.05-.66-.1-.99-.12-.51-.03-1.03-.01-1.56.13.15-.31.29-.59.42-.87zM16.06 43c-.69 1.36-1.31 2.75-1.83 4.18-.04.13-.12.25-.18.38-.03.06-.05.13-.07.2-.02.11-.03.22-.06.32-.04.17-.1.34-.14.51-.11.44-.24.87-.23 1.33 0 .22.14.39.35.43.19.03.36-.09.44-.31.16-.46.31-.92.48-1.38.07-.22.07-.21.31-.22.79-.03 1.57.07 2.33.29.11.04.21.08.29.18.18.23.55.18.65-.08.04-.11.04-.24.02-.35-.04-.25-.21-.42-.42-.52-.28-.13-.56-.23-.84-.32-.2-.07-.41-.1-.62-.16.04-.03.07-.05.1-.07.52-.33 1.01-.7 1.45-1.13.65-.65 1.19-1.37 1.48-2.25.14-.4.2-.82.08-1.24-.19-.64-.74-.98-1.44-1.02-.45-.03-.89.01-1.33.09-.7.13-1.38.3-2.03.57-.19.07-.37.19-.52.32-.13.1-.13.24-.05.36.07.11.2.14.35.09.34-.1.67-.21 1-.3.17-.05.34-.08.54-.13-.05.1-.08.16-.11.23zm-.35 3.22c.37-.94.76-1.87 1.13-2.81.1-.24.18-.48.27-.72.01-.04.05-.09.09-.09.38-.04.76-.07 1.13.02.37.08.54.34.48.71-.08.57-.36 1.06-.69 1.52-.59.81-1.39 1.4-2.24 1.91-.14.08-.27.16-.41.24-.01.01-.03.01-.07.03.11-.29.2-.55.31-.81zm4.435-.02c-.55.54-.96 1.16-1.12 1.93-.16.73.2 1.62 1.35 1.56.34-.02.68-.12 1.01-.23 1.09-.37 2.06-.98 3.01-1.63.34-.23.67-.48 1-.73.14-.1.19-.24.13-.38-.05-.14-.18-.21-.35-.18-.1.02-.21.06-.31.12-.6.34-1.19.69-1.79 1.03-.66.38-1.33.75-2.07.97-.24.07-.49.12-.74.14-.22.01-.33-.08-.35-.25-.01-.09 0-.19.02-.28.08-.38.26-.72.48-1.03.46-.63 1.05-1.13 1.72-1.53.13-.08.28-.12.43-.18.14-.05.3-.08.43-.15.2-.12.2-.39 0-.49a.394.394 0 00-.21-.06c-.28.02-.56.05-.84.06-.2.01-.4.02-.6.01-.03 0-.1-.06-.09-.09.02-.12.03-.26.09-.36.37-.59.88-1.02 1.54-1.24.2-.07.4-.07.57.09.09.07.2.09.31.02.1-.06.14-.16.13-.28a.57.57 0 00-.29-.43c-.27-.19-.58-.23-.9-.16-.95.23-1.65.79-2.16 1.61-.14.24-.2.51-.17.79.04.32.19.58.46.75-.24.21-.47.4-.69.6zm5.362 0c-.55.54-.96 1.16-1.12 1.93-.16.73.2 1.62 1.35 1.56.34-.02.68-.12 1.01-.23 1.09-.37 2.06-.98 3.01-1.63.34-.23.67-.48 1-.73.14-.1.19-.24.13-.38-.05-.14-.18-.21-.35-.18-.1.02-.21.06-.31.12-.6.34-1.19.69-1.79 1.03-.66.38-1.33.75-2.07.97-.24.07-.49.12-.74.14-.22.01-.33-.08-.35-.25-.01-.09 0-.19.02-.28.08-.38.26-.72.48-1.03.46-.63 1.05-1.13 1.72-1.53.13-.08.28-.12.43-.18.14-.05.3-.08.43-.15.2-.12.2-.39 0-.49a.394.394 0 00-.21-.06c-.28.02-.56.05-.84.06-.2.01-.4.02-.6.01-.03 0-.1-.06-.09-.09.02-.12.03-.26.09-.36.37-.59.88-1.02 1.54-1.24.2-.07.4-.07.57.09.09.07.2.09.31.02.1-.06.14-.16.13-.28a.57.57 0 00-.29-.43c-.27-.19-.58-.23-.9-.16-.95.23-1.65.79-2.16 1.61-.14.24-.2.51-.17.79.04.32.19.58.46.75-.24.21-.47.4-.69.6zm4.381 2.44c.12.73.74 1.36 1.66 1.13.56-.14 1.07-.39 1.54-.71.87-.58 1.72-1.19 2.59-1.79.13-.09.16-.23.11-.37a.343.343 0 00-.37-.2c-.08.02-.16.05-.23.09-.31.16-.63.32-.94.5-.54.33-1.06.67-1.6 1-.41.25-.83.48-1.31.59-.25.05-.39-.04-.45-.28-.01-.07-.02-.14-.02-.21-.03-.54.14-1.05.31-1.55.3-.89.81-1.67 1.4-2.4.35-.43.75-.82 1.25-1.09.44-.23.74-.25 1.12.16.01 0 .01.01.02.01.17.16.39.1.46-.12.02-.08.02-.17 0-.24-.11-.47-.6-.86-1.08-.87-.38-.01-.73.09-1.07.27-.64.35-1.15.85-1.61 1.41-.63.79-1.16 1.63-1.48 2.6-.17.52-.32 1.06-.33 1.68 0 .09.01.24.03.39zm11.071-1.7c.5-1.02 1-2.04 1.49-3.07.19-.41.36-.83.47-1.26.15-.55-.28-.97-.84-.87-.39.07-.75.24-1.08.45-.85.55-1.56 1.26-2.19 2.04-.72.89-1.38 1.82-1.94 2.81-.03.06-.1.12-.16.14-.16.05-.33.08-.49.13-.33.1-.65.2-.97.32-.16.06-.22.2-.19.33.04.15.16.23.32.22.14-.01.28-.04.42-.06.18-.03.36-.07.55-.11-.01.04-.02.06-.03.08-.17.4-.37.8-.52 1.22-.09.22-.13.47-.16.71-.02.16.1.31.25.35.15.04.3-.01.4-.14.04-.06.06-.12.09-.17.39-.75.79-1.5 1.18-2.25.02-.04.06-.08.09-.09.11-.02.23-.04.35-.05.38-.04.75-.08 1.13-.11.2-.02.4-.01.61-.01-.1.25-.2.48-.29.72-.12.3-.24.6-.34.91-.07.2.02.38.2.45.16.06.33-.02.41-.2.21-.42.42-.85.63-1.27.1-.19.19-.37.29-.56.35.11.47.09.54-.07.08-.16.01-.28-.27-.47.02-.05.03-.08.05-.12zm.3-2.73c-.39.86-.79 1.71-1.17 2.58-.05.09-.09.1-.19.1-.29-.01-.59-.02-.88-.01-.3.01-.6.04-.92.06.09-.13.16-.25.24-.36.68-.98 1.39-1.93 2.27-2.75.34-.3.71-.56 1.06-.85.04-.02.09-.04.13-.07l.03.03c-.19.42-.38.85-.57 1.27zm2.654 1.39c.02-.03.03-.06.05-.1.4-.72.81-1.44 1.21-2.16.16-.29.32-.59.46-.89.09-.19.05-.35-.08-.45-.13-.1-.31-.1-.46.02-.13.1-.25.22-.35.35-.64.83-1.21 1.71-1.72 2.63-.56.97-1.12 1.94-1.54 2.99-.2.51-.39 1.04-.44 1.59-.03.28.11.52.33.59.23.06.42-.06.54-.33.07-.15.15-.31.22-.47.29-.68.58-1.35.88-2.03.08-.18.17-.35.26-.53.15.26.27.51.42.75.29.46.59.93.91 1.37.12.17.29.33.46.45.31.2.71 0 .73-.36 0-.13-.05-.27-.1-.4-.24-.55-.62-1.03-.97-1.52-.16-.24-.32-.47-.5-.72.06-.02.09-.04.13-.06 1.13-.57 2.08-1.36 2.88-2.32.28-.33.5-.69.58-1.12.04-.17.03-.34-.09-.48-.14-.16-.37-.14-.44.05-.13.36-.35.65-.6.93-.57.63-1.21 1.18-1.9 1.67-.28.2-.57.39-.85.58-.01-.01-.01-.02-.02-.03zm3.684.6c-.55.54-.96 1.16-1.12 1.93-.16.73.2 1.62 1.35 1.56.34-.02.68-.12 1.01-.23 1.09-.37 2.06-.98 3.01-1.63.34-.23.67-.48 1-.73.14-.1.19-.24.13-.38-.05-.14-.18-.21-.35-.18-.1.02-.21.06-.31.12-.6.34-1.19.69-1.79 1.03-.66.38-1.33.75-2.07.97-.24.07-.49.12-.74.14-.22.01-.33-.08-.35-.25-.01-.09 0-.19.02-.28.08-.38.26-.72.48-1.03.46-.63 1.05-1.13 1.72-1.53.13-.08.28-.12.43-.18.14-.05.3-.08.43-.15.2-.12.2-.39 0-.49a.394.394 0 00-.21-.06c-.28.02-.56.05-.84.06-.2.01-.4.02-.6.01-.03 0-.1-.06-.09-.09.02-.12.03-.26.09-.36.37-.59.88-1.02 1.54-1.24.2-.07.4-.07.57.09.09.07.2.09.31.02.1-.06.14-.16.13-.28a.57.57 0 00-.29-.43c-.27-.19-.58-.23-.9-.16-.95.23-1.65.79-2.16 1.61-.14.24-.2.51-.17.79.04.32.19.58.46.75-.24.21-.47.4-.69.6z" fill="#4E4E4E"/></svg>