<svg width="100" height="100" fill="none" xmlns="http://www.w3.org/2000/svg"><path d="M0 0h100v92a8 8 0 01-8 8H0V0z" fill="#fff"/><path d="M64.891 18.766a1.585 1.585 0 00-1.304-.126 7025.603 7025.603 0 01-12.41 4.24 7.822 7.822 0 00-4.317-2.364c-.441-2.513-2.063-4.684-4.452-5.854l-.438-.215a1.572 1.572 0 00-2.088.682 1.51 1.51 0 00.696 2.045l.438.215a5.048 5.048 0 012.672 3.189c-3.288.737-5.788 3.519-6.025 6.902a7751.768 7751.768 0 00-15.787 5.39 1.527 1.527 0 00-1.043 1.44v16.262h.002c0 .63.4 1.22 1.043 1.44l41.711 14.23a1.582 1.582 0 001.059-.013l.157-.035c.86-.195 3.146-.713 5.214-2.379 2.614-2.104 3.94-5.192 3.94-9.177V34.309c0-.42-.104-10.369-9.068-15.543zm-19.467 4.667c2.575 0 4.67 2.052 4.67 4.574s-2.095 4.574-4.67 4.574c-2.574 0-4.669-2.052-4.669-4.574s2.095-4.574 4.67-4.574zm-7.33 7.129c1.074 2.95 3.954 5.068 7.33 5.068 4.291 0 7.782-3.42 7.782-7.623a7.45 7.45 0 00-.414-2.45 6942.56 6942.56 0 0011.12-3.798c6.853 4.399 6.934 12.467 6.934 12.55 0 7.072-5.202 11.31-6.962 12.54l-8.607-2.95a1.583 1.583 0 00-1.415.195c-.411.286-.656.75-.656 1.243v6.251c0 .84-.698 1.525-1.556 1.525-.858 0-1.556-.684-1.556-1.525v-8.385c0-.65-.42-1.228-1.046-1.44l-21.928-7.46c3.72-1.272 7.419-2.532 10.972-3.742zM46.98 49.19l-23.035-7.835v-4.904l23.035 7.835v4.904zm-23.035-4.607l23.119 7.863c.411 2.113 2.31 3.715 4.585 3.715 1.159 0 2.22-.417 3.037-1.104l7.858 2.694v4.904L23.946 49.488v-4.904zm38.599 9.937l-6.294-2.157c.044-.253.068-.511.068-.776v-4.102l6.226 2.135v4.9zm8.3.117c0 4.17-1.701 6.843-5.187 8.128V49.358a20.95 20.95 0 005.188-5.197v10.477z" fill="#353535"/><path d="M63.582 29.227c.86 0 1.557-.683 1.557-1.525 0-.842-.697-1.525-1.557-1.525s-1.556.683-1.556 1.525c0 .842.697 1.524 1.556 1.524zm2.076 7.115c.86 0 1.556-.683 1.556-1.525 0-.842-.697-1.525-1.556-1.525-.86 0-1.557.683-1.557 1.525 0 .842.697 1.525 1.557 1.525zM60.47 42.44c.86 0 1.556-.683 1.556-1.525 0-.842-.697-1.524-1.556-1.524-.86 0-1.557.682-1.557 1.524s.697 1.525 1.557 1.525zm-3.113-7.115c.86 0 1.556-.683 1.556-1.525 0-.842-.697-1.524-1.556-1.524-.86 0-1.557.682-1.557 1.524 0 .843.697 1.525 1.557 1.525z" fill="#FFDD86"/><path d="M15.92 79.893c.396-.792.84-1.548 1.392-2.256.192-.228.384-.396.696-.348 0 0 .012-.012.012 0 .06.024.768.012.852.024a.63.63 0 01.216.024c.36.072.708.144 1.056.216.084.024.132.06.144.156a.418.418 0 00.384.336.45.45 0 00.432-.276.724.724 0 00-.06-.744c-.168-.24-.396-.384-.66-.492-.708-.276-1.44-.372-2.184-.396-.42-.012-.84.048-1.26.084a9.99 9.99 0 00-2.148.408c-.264.084-.528.18-.78.3a.428.428 0 00-.252.456c.024.192.18.348.384.372a.652.652 0 00.216 0c.276-.048.552-.108.828-.156.264-.048.528-.096.828-.144-.192.276-.384.516-.528.78-.516.948-1.02 1.908-1.524 2.868-.084.168-.18.288-.372.336-.252.072-.504.18-.756.276a.275.275 0 00-.18.288c0 .132.084.228.216.276.072.012.144.024.204.024a3.87 3.87 0 01.372-.024c-.168.492-.348.972-.492 1.452-.132.444-.288.888-.312 1.356-.012.264.108.456.312.528.204.084.432.012.588-.18.096-.12.18-.264.24-.408.132-.312.24-.624.348-.936.264-.684.516-1.368.768-2.052a.288.288 0 01.12-.12c.456-.072.9-.156 1.356-.204.708-.06 1.416-.06 2.112.024.18.024.324-.048.396-.204a.37.37 0 00-.084-.444.93.93 0 00-.324-.168c-.396-.06-.792-.12-1.188-.144-.612-.036-1.236-.012-1.872.156.18-.372.348-.708.504-1.044zm7.45-2.664a45.354 45.354 0 00-2.195 5.016c-.048.156-.144.3-.216.456-.036.072-.06.156-.084.24-.024.132-.036.264-.072.384-.048.204-.12.408-.168.612-.132.528-.288 1.044-.276 1.596 0 .264.168.468.42.516.228.036.432-.108.528-.372.192-.552.372-1.104.576-1.656.084-.264.084-.252.372-.264a8.815 8.815 0 012.796.348c.132.048.252.096.348.216.216.276.66.216.78-.096a.834.834 0 00.024-.42c-.048-.3-.252-.504-.504-.624a8.654 8.654 0 00-1.008-.384c-.24-.084-.492-.12-.744-.192.048-.036.084-.06.12-.084.624-.396 1.212-.84 1.74-1.356.78-.78 1.428-1.644 1.776-2.7.168-.48.24-.984.096-1.488-.228-.768-.888-1.176-1.728-1.224a6.462 6.462 0 00-1.596.108c-.84.156-1.656.36-2.436.684a2.085 2.085 0 00-.624.384c-.156.12-.156.288-.06.432.084.132.24.168.42.108.408-.12.804-.252 1.2-.36.204-.06.408-.096.648-.156-.06.12-.096.192-.132.276zm-.42 3.864c.445-1.128.913-2.244 1.357-3.372.12-.288.216-.576.324-.864.012-.048.06-.108.108-.108.456-.048.912-.084 1.356.024.444.096.648.408.576.852-.096.684-.432 1.272-.828 1.824-.708.972-1.668 1.68-2.688 2.292-.168.096-.324.192-.492.288-.012.012-.036.012-.084.036.132-.348.24-.66.372-.972zm5.324-.024c-.66.648-1.152 1.392-1.344 2.316-.192.876.24 1.944 1.62 1.872.408-.024.816-.144 1.212-.276 1.308-.444 2.472-1.176 3.612-1.956.408-.276.804-.576 1.2-.876.168-.12.228-.288.156-.456-.06-.168-.216-.252-.42-.216-.12.024-.252.072-.372.144-.72.408-1.428.828-2.148 1.236-.792.456-1.596.9-2.484 1.164a4.461 4.461 0 01-.888.168c-.264.012-.396-.096-.42-.3a1.06 1.06 0 01.024-.336c.096-.456.312-.864.576-1.236.552-.756 1.26-1.356 2.064-1.836.156-.096.336-.144.516-.216.168-.06.36-.096.516-.18.24-.144.24-.468 0-.588a.472.472 0 00-.252-.072c-.336.024-.672.06-1.008.072-.24.012-.48.024-.72.012-.036 0-.12-.072-.108-.108.024-.144.036-.312.108-.432.444-.708 1.056-1.224 1.848-1.488.24-.084.48-.084.684.108.108.084.24.108.372.024.12-.072.168-.192.156-.336-.024-.228-.156-.396-.348-.516-.324-.228-.696-.276-1.08-.192-1.14.276-1.98.948-2.592 1.932-.168.288-.24.612-.204.948.048.384.228.696.552.9-.288.252-.564.48-.828.72zm6.434 0c-.66.648-1.152 1.392-1.344 2.316-.192.876.24 1.944 1.62 1.872.408-.024.816-.144 1.212-.276 1.308-.444 2.472-1.176 3.612-1.956.408-.276.804-.576 1.2-.876.168-.12.228-.288.156-.456-.06-.168-.216-.252-.42-.216-.12.024-.252.072-.372.144-.72.408-1.428.828-2.148 1.236-.792.456-1.596.9-2.484 1.164a4.461 4.461 0 01-.888.168c-.264.012-.396-.096-.42-.3a1.06 1.06 0 01.024-.336c.096-.456.312-.864.576-1.236.552-.756 1.26-1.356 2.064-1.836.156-.096.336-.144.516-.216.168-.06.36-.096.516-.18.24-.144.24-.468 0-.588a.472.472 0 00-.252-.072c-.336.024-.672.06-1.008.072-.24.012-.48.024-.72.012-.036 0-.12-.072-.108-.108.024-.144.036-.312.108-.432.444-.708 1.056-1.224 1.848-1.488.24-.084.48-.084.684.108.108.084.24.108.372.024.12-.072.168-.192.156-.336-.024-.228-.156-.396-.348-.516-.324-.228-.696-.276-1.08-.192-1.14.276-1.98.948-2.592 1.932-.168.288-.24.612-.204.948.048.384.228.696.552.9-.288.252-.564.48-.828.72zm5.258 2.928c.144.876.888 1.632 1.992 1.356a5.764 5.764 0 001.848-.852c1.044-.696 2.064-1.428 3.108-2.148.156-.108.192-.276.132-.444a.411.411 0 00-.444-.24 1.1 1.1 0 00-.276.108c-.372.192-.756.384-1.128.6-.648.396-1.272.804-1.92 1.2-.492.3-.996.576-1.572.708-.3.06-.468-.048-.54-.336a1.79 1.79 0 01-.024-.252c-.036-.648.168-1.26.372-1.86.36-1.068.972-2.004 1.68-2.88.42-.516.9-.984 1.5-1.308.528-.276.888-.3 1.344.192.012 0 .012.012.024.012.204.192.468.12.552-.144a.584.584 0 000-.288c-.132-.564-.72-1.032-1.296-1.044-.456-.012-.876.108-1.284.324-.768.42-1.38 1.02-1.932 1.692-.756.948-1.392 1.956-1.776 3.12-.204.624-.384 1.272-.396 2.016 0 .108.012.288.036.468zm13.285-2.04c.6-1.224 1.2-2.448 1.788-3.684.228-.492.432-.996.564-1.512.18-.66-.336-1.164-1.008-1.044-.468.084-.9.288-1.296.54-1.02.66-1.872 1.512-2.628 2.448-.864 1.068-1.656 2.184-2.328 3.372a.374.374 0 01-.192.168c-.192.06-.396.096-.588.156-.396.12-.78.24-1.164.384-.192.072-.264.24-.228.396.048.18.192.276.384.264.168-.012.336-.048.504-.072.216-.036.432-.084.66-.132a.406.406 0 01-.036.096c-.204.48-.444.96-.624 1.464-.108.264-.156.564-.192.852-.024.192.12.372.3.42.18.048.36-.012.48-.168.048-.072.072-.144.108-.204.468-.9.948-1.8 1.416-2.7a.234.234 0 01.108-.108 4.42 4.42 0 01.42-.06c.456-.048.9-.096 1.356-.132.24-.024.48-.012.732-.012-.12.3-.24.576-.348.864-.144.36-.288.72-.408 1.092-.084.24.024.456.24.54.192.072.396-.024.492-.24.252-.504.504-1.02.756-1.524.12-.228.228-.444.348-.672.42.132.564.108.648-.084.096-.192.012-.336-.324-.564.024-.06.036-.096.06-.144zm.36-3.276c-.468 1.032-.948 2.052-1.404 3.096-.06.108-.108.12-.228.12a15.495 15.495 0 00-1.056-.012c-.36.012-.72.048-1.104.072.108-.156.192-.3.288-.432.816-1.176 1.668-2.316 2.724-3.3.408-.36.852-.672 1.272-1.02.048-.024.108-.048.156-.084l.036.036c-.228.504-.456 1.02-.684 1.524zm3.185 1.668c.024-.036.036-.072.06-.12.48-.864.972-1.728 1.452-2.592.192-.348.384-.708.552-1.068.108-.228.06-.42-.096-.54-.156-.12-.372-.12-.552.024-.156.12-.3.264-.42.42a25.027 25.027 0 00-2.064 3.156c-.672 1.164-1.344 2.328-1.848 3.588-.24.612-.468 1.248-.528 1.908-.036.336.132.624.396.708.276.072.504-.072.648-.396.084-.18.18-.372.264-.564.348-.816.696-1.62 1.056-2.436.096-.216.204-.42.312-.636.18.312.324.612.504.9.348.552.708 1.116 1.092 1.644.144.204.348.396.552.54.372.24.852 0 .876-.432 0-.156-.06-.324-.12-.48-.288-.66-.744-1.236-1.164-1.824a28.657 28.657 0 00-.6-.864c.072-.024.108-.048.156-.072 1.356-.684 2.496-1.632 3.456-2.784.336-.396.6-.828.696-1.344.048-.204.036-.408-.108-.576-.168-.192-.444-.168-.528.06-.156.432-.42.78-.72 1.116a13.924 13.924 0 01-2.28 2.004c-.336.24-.684.468-1.02.696-.012-.012-.012-.024-.024-.036zm4.42.72c-.66.648-1.152 1.392-1.344 2.316-.192.876.24 1.944 1.62 1.872.408-.024.816-.144 1.212-.276 1.308-.444 2.472-1.176 3.612-1.956.408-.276.804-.576 1.2-.876.168-.12.228-.288.156-.456-.06-.168-.216-.252-.42-.216-.12.024-.252.072-.372.144-.72.408-1.428.828-2.148 1.236-.792.456-1.596.9-2.484 1.164a4.461 4.461 0 01-.888.168c-.264.012-.396-.096-.42-.3a1.06 1.06 0 01.024-.336c.096-.456.312-.864.576-1.236.552-.756 1.26-1.356 2.064-1.836.156-.096.336-.144.516-.216.168-.06.36-.096.516-.18.24-.144.24-.468 0-.588a.472.472 0 00-.252-.072c-.336.024-.672.06-1.008.072-.24.012-.48.024-.72.012-.036 0-.12-.072-.108-.108.024-.144.036-.312.108-.432.444-.708 1.056-1.224 1.848-1.488.24-.084.48-.084.684.108.108.084.24.108.372.024.12-.072.168-.192.156-.336-.024-.228-.156-.396-.348-.516-.324-.228-.696-.276-1.08-.192-1.14.276-1.98.948-2.592 1.932-.168.288-.24.612-.204.948.048.384.228.696.552.9-.288.252-.564.48-.828.72zm7.083 2.208c-.18-.156-.42-.156-.624-.036a.871.871 0 00-.408.54c-.108.336.168.684.516.684.3-.012.636-.276.72-.588.06-.252-.024-.444-.204-.6z" fill="#353535"/><path d="M73.726 77.229a45.354 45.354 0 00-2.196 5.016c-.048.156-.144.3-.216.456-.036.072-.06.156-.084.24-.024.132-.036.264-.072.384-.048.204-.12.408-.168.612-.132.528-.288 1.044-.276 1.596 0 .264.168.468.42.516.228.036.432-.108.528-.372.192-.552.372-1.104.576-1.656.084-.264.084-.252.372-.264a8.815 8.815 0 012.796.348c.132.048.252.096.348.216.216.276.66.216.78-.096a.834.834 0 00.024-.42c-.048-.3-.252-.504-.504-.624a8.654 8.654 0 00-1.008-.384c-.24-.084-.492-.12-.744-.192.048-.036.084-.06.12-.084.624-.396 1.212-.84 1.74-1.356.78-.78 1.428-1.644 1.776-2.7.168-.48.24-.984.096-1.488-.228-.768-.888-1.176-1.728-1.224a6.462 6.462 0 00-1.596.108c-.84.156-1.656.36-2.436.684a2.085 2.085 0 00-.624.384c-.156.12-.156.288-.06.432.084.132.24.168.42.108.408-.12.804-.252 1.2-.36.204-.06.408-.096.648-.156-.06.12-.096.192-.132.276zm-.42 3.864c.444-1.128.912-2.244 1.356-3.372.12-.288.216-.576.324-.864.012-.048.06-.108.108-.108.456-.048.912-.084 1.356.024.444.096.648.408.576.852-.096.684-.432 1.272-.828 1.824-.708.972-1.668 1.68-2.688 2.292-.168.096-.324.192-.492.288-.012.012-.036.012-.084.036.132-.348.24-.66.372-.972zm9.456.396c-.025.072-.06.144-.097.228-.324.816-.66 1.644-.996 2.46-.084.216-.132.444-.072.672.073.252.277.408.517.384.227-.012.431-.228.456-.48 0-.06.012-.12.036-.18.395-.972.78-1.956 1.2-2.928.576-1.332 1.308-2.58 1.992-3.852a4.1 4.1 0 00.311-.708.471.471 0 00-.54-.612c-.192.036-.3.168-.407.312-.457.612-.889 1.248-1.38 1.824a182.24 182.24 0 01-3.492 3.948c-.469.516-1.009.972-1.513 1.452-.084.072-.192.132-.311.216-.012-.132-.024-.228-.024-.312 0-.636.144-1.26.336-1.86.563-1.704 1.427-3.252 2.387-4.752.072-.12.144-.228.18-.348.097-.252-.047-.528-.3-.528a.598.598 0 00-.371.144c-.157.12-.3.264-.42.42a16.1 16.1 0 00-1.513 2.292c-.612 1.164-1.188 2.352-1.391 3.672-.084.54-.108 1.08.035 1.608.132.48.444.78.9.804.216 0 .457-.048.636-.156a6.12 6.12 0 00.96-.696c.733-.72 1.428-1.476 2.136-2.22.252-.264.48-.54.733-.816l.011.012z" fill="#FFDD86"/></svg>