<svg width="102" height="48" fill="none" xmlns="http://www.w3.org/2000/svg"><path d="M5.56 10.952c.528-1.056 1.12-2.064 1.856-3.008.256-.304.512-.528.928-.464 0 0 .016-.016.016 0 .08.032 1.024.016 1.136.032a.84.84 0 01.288.032c.48.096.944.192 1.408.288.112.032.176.08.192.208a.557.557 0 00.512.448c.24.016.464-.128.576-.368.16-.336.128-.672-.08-.992-.224-.32-.528-.512-.88-.656-.944-.368-1.92-.496-2.912-.528-.56-.016-1.12.064-1.68.112a13.32 13.32 0 00-2.864.544c-.352.112-.704.24-1.04.4a.57.57 0 00-.336.608c.032.256.24.464.512.496a.87.87 0 00.288 0c.368-.064.736-.144 1.104-.208.352-.064.704-.128 1.104-.192-.256.368-.512.688-.704 1.04-.688 1.264-1.36 2.544-2.032 3.824-.112.224-.24.384-.496.448-.336.096-.672.24-1.008.368a.367.367 0 00-.24.384c0 .176.112.304.288.368.096.016.192.032.272.032a5.16 5.16 0 01.496-.032c-.224.656-.464 1.296-.656 1.936-.176.592-.384 1.184-.416 1.808-.016.352.144.608.416.704.272.112.576.016.784-.24.128-.16.24-.352.32-.544.176-.416.32-.832.464-1.248.352-.912.688-1.824 1.024-2.736a.384.384 0 01.16-.16c.608-.096 1.2-.208 1.808-.272.944-.08 1.888-.08 2.816.032.24.032.432-.064.528-.272a.494.494 0 00-.112-.592 1.241 1.241 0 00-.432-.224c-.528-.08-1.056-.16-1.584-.192-.816-.048-1.648-.016-2.496.208.24-.496.464-.944.672-1.392zM15.494 7.4a60.471 60.471 0 00-2.928 6.688c-.064.208-.192.4-.288.608-.048.096-.08.208-.112.32-.032.176-.048.352-.096.512-.063.272-.16.544-.223.816-.176.704-.384 1.392-.368 2.128 0 .352.224.624.56.688.303.048.575-.144.704-.496.255-.736.495-1.472.768-2.208.112-.352.112-.336.496-.352a11.753 11.753 0 013.728.464c.175.064.335.128.463.288.288.368.88.288 1.04-.128.064-.176.064-.384.032-.56-.064-.4-.335-.672-.671-.832a11.538 11.538 0 00-1.345-.512c-.32-.112-.655-.16-.992-.256.064-.048.113-.08.16-.112a14.114 14.114 0 002.32-1.808c1.04-1.04 1.904-2.192 2.368-3.6.224-.64.32-1.312.128-1.984-.303-1.024-1.183-1.568-2.303-1.632a8.616 8.616 0 00-2.128.144c-1.12.208-2.208.48-3.248.912a2.78 2.78 0 00-.832.512c-.209.16-.209.384-.08.576.111.176.32.224.56.144.543-.16 1.071-.336 1.6-.48.271-.08.543-.128.864-.208-.08.16-.128.256-.176.368zm-.56 5.152c.593-1.504 1.217-2.992 1.809-4.496.16-.384.288-.768.431-1.152.017-.064.08-.144.145-.144.608-.064 1.216-.112 1.808.032.591.128.864.544.768 1.136-.128.912-.576 1.696-1.104 2.432-.945 1.296-2.224 2.24-3.585 3.056-.223.128-.431.256-.655.384-.017.016-.049.016-.113.048.176-.464.32-.88.496-1.296zm7.098-.032c-.88.864-1.535 1.856-1.791 3.088-.256 1.168.32 2.592 2.16 2.496.544-.032 1.087-.192 1.616-.368 1.744-.592 3.296-1.568 4.816-2.608.544-.368 1.072-.768 1.6-1.168.224-.16.303-.384.207-.608-.08-.224-.288-.336-.56-.288a1.59 1.59 0 00-.495.192c-.96.544-1.905 1.104-2.864 1.648-1.056.608-2.128 1.2-3.313 1.552a5.948 5.948 0 01-1.184.224c-.352.016-.527-.128-.56-.4-.016-.144 0-.304.032-.448.128-.608.416-1.152.768-1.648.737-1.008 1.68-1.808 2.753-2.448.207-.128.448-.192.688-.288.223-.08.48-.128.688-.24.32-.192.32-.624 0-.784a.63.63 0 00-.337-.096c-.448.032-.896.08-1.343.096-.32.016-.64.032-.96.016-.049 0-.16-.096-.145-.144.032-.192.049-.416.145-.576.591-.944 1.407-1.632 2.463-1.984.32-.112.64-.112.912.144.145.112.32.144.497.032.16-.096.224-.256.207-.448-.032-.304-.207-.528-.463-.688-.432-.304-.928-.368-1.44-.256-1.52.368-2.64 1.264-3.457 2.576a2.04 2.04 0 00-.271 1.264c.064.512.303.928.736 1.2-.384.336-.753.64-1.105.96zm8.579 0c-.88.864-1.536 1.856-1.792 3.088-.256 1.168.32 2.592 2.16 2.496.544-.032 1.088-.192 1.616-.368 1.744-.592 3.296-1.568 4.816-2.608.544-.368 1.072-.768 1.6-1.168.224-.16.304-.384.208-.608-.08-.224-.288-.336-.56-.288a1.59 1.59 0 00-.496.192c-.96.544-1.904 1.104-2.864 1.648-1.056.608-2.128 1.2-3.312 1.552a5.948 5.948 0 01-1.184.224c-.352.016-.528-.128-.56-.4-.016-.144 0-.304.032-.448.128-.608.416-1.152.768-1.648.736-1.008 1.68-1.808 2.752-2.448.208-.128.448-.192.688-.288.224-.08.48-.128.688-.24.32-.192.32-.624 0-.784a.63.63 0 00-.336-.096c-.448.032-.896.08-1.344.096-.32.016-.64.032-.96.016-.048 0-.16-.096-.144-.144.032-.192.048-.416.144-.576.592-.944 1.408-1.632 2.464-1.984.32-.112.64-.112.912.144.144.112.32.144.496.032.16-.096.224-.256.208-.448-.032-.304-.208-.528-.464-.688-.432-.304-.928-.368-1.44-.256-1.52.368-2.64 1.264-3.456 2.576-.224.384-.32.816-.272 1.264.064.512.304.928.736 1.2-.384.336-.752.64-1.104.96zm7.01 3.904c.192 1.168 1.184 2.176 2.656 1.808.896-.224 1.712-.624 2.464-1.136 1.392-.928 2.752-1.904 4.144-2.864.208-.144.256-.368.176-.592a.548.548 0 00-.592-.32c-.128.032-.256.08-.368.144-.496.256-1.008.512-1.504.8-.864.528-1.696 1.072-2.56 1.6-.656.4-1.328.768-2.096.944-.4.08-.624-.064-.72-.448a2.387 2.387 0 01-.032-.336c-.048-.864.224-1.68.496-2.48.48-1.424 1.296-2.672 2.24-3.84.56-.688 1.2-1.312 2-1.744.704-.368 1.184-.4 1.792.256.016 0 .016.016.032.016.272.256.624.16.736-.192a.78.78 0 000-.384c-.176-.752-.96-1.376-1.728-1.392-.608-.016-1.168.144-1.712.432-1.024.56-1.84 1.36-2.576 2.256-1.008 1.264-1.856 2.608-2.368 4.16-.272.832-.512 1.696-.528 2.688 0 .144.016.384.048.624zm17.714-2.72c.8-1.632 1.6-3.264 2.384-4.912.304-.656.576-1.328.752-2.016.24-.88-.448-1.552-1.344-1.392-.624.112-1.2.384-1.728.72-1.36.88-2.496 2.016-3.504 3.264-1.152 1.424-2.208 2.912-3.104 4.496a.498.498 0 01-.256.224c-.256.08-.528.128-.784.208-.528.16-1.04.32-1.552.512-.256.096-.352.32-.304.528.064.24.256.368.512.352.224-.016.448-.064.672-.096.288-.048.576-.112.88-.176a.542.542 0 01-.048.128c-.272.64-.592 1.28-.832 1.952-.144.352-.208.752-.256 1.136-.032.256.16.496.4.56.24.064.48-.016.64-.224.064-.096.096-.192.144-.272.624-1.2 1.264-2.4 1.888-3.6a.312.312 0 01.144-.144c.176-.032.368-.064.56-.08.608-.064 1.2-.128 1.808-.176.32-.032.64-.016.976-.016-.16.4-.32.768-.464 1.152-.192.48-.384.96-.544 1.456-.112.32.032.608.32.72.256.096.528-.032.656-.32.336-.672.672-1.36 1.008-2.032.16-.304.304-.592.464-.896.56.176.752.144.864-.112.128-.256.016-.448-.432-.752.032-.08.048-.128.08-.192zm.48-4.368c-.624 1.376-1.264 2.736-1.872 4.128-.08.144-.144.16-.304.16a20.66 20.66 0 00-1.408-.016c-.48.016-.96.064-1.472.096.144-.208.256-.4.384-.576 1.088-1.568 2.224-3.088 3.632-4.4.544-.48 1.136-.896 1.696-1.36.064-.032.144-.064.208-.112l.048.048c-.304.672-.608 1.36-.912 2.032zm4.247 2.224c.032-.048.047-.096.08-.16.64-1.152 1.295-2.304 1.935-3.456.257-.464.513-.944.736-1.424.145-.304.08-.56-.128-.72-.208-.16-.495-.16-.736.032-.207.16-.4.352-.56.56a33.37 33.37 0 00-2.752 4.208c-.895 1.552-1.791 3.104-2.464 4.784-.32.816-.623 1.664-.704 2.544-.047.448.176.832.529.944.367.096.672-.096.864-.528.111-.24.24-.496.352-.752.464-1.088.928-2.16 1.407-3.248.128-.288.273-.56.416-.848.24.416.432.816.672 1.2.464.736.944 1.488 1.456 2.192.193.272.465.528.736.72.496.32 1.136 0 1.168-.576 0-.208-.08-.432-.16-.64-.383-.88-.992-1.648-1.551-2.432a38.209 38.209 0 00-.8-1.152c.096-.032.144-.064.208-.096 1.808-.912 3.328-2.176 4.608-3.712.448-.528.8-1.104.928-1.792.063-.272.047-.544-.145-.768-.224-.256-.591-.224-.703.08-.208.576-.56 1.04-.96 1.488a18.565 18.565 0 01-3.04 2.672c-.449.32-.913.624-1.36.928-.017-.016-.017-.032-.032-.048zm5.892.96c-.88.864-1.536 1.856-1.792 3.088-.256 1.168.32 2.592 2.16 2.496.544-.032 1.088-.192 1.616-.368 1.744-.592 3.296-1.568 4.816-2.608a37.084 37.084 0 001.6-1.168c.224-.16.304-.384.208-.608-.08-.224-.288-.336-.56-.288a1.59 1.59 0 00-.496.192c-.96.544-1.904 1.104-2.864 1.648-1.056.608-2.128 1.2-3.312 1.552a5.948 5.948 0 01-1.184.224c-.352.016-.528-.128-.56-.4-.016-.144 0-.304.032-.448.128-.608.416-1.152.768-1.648.736-1.008 1.68-1.808 2.752-2.448.208-.128.448-.192.688-.288.224-.08.48-.128.688-.24.32-.192.32-.624 0-.784a.63.63 0 00-.336-.096c-.448.032-.896.08-1.344.096-.32.016-.64.032-.96.016-.048 0-.16-.096-.144-.144.032-.192.048-.416.144-.576.592-.944 1.408-1.632 2.464-1.984.32-.112.64-.112.912.144.144.112.32.144.496.032.16-.096.224-.256.208-.448-.032-.304-.208-.528-.464-.688-.432-.304-.928-.368-1.44-.256-1.52.368-2.64 1.264-3.456 2.576-.224.384-.32.816-.272 1.264.064.512.304.928.736 1.2-.384.336-.752.64-1.104.96zm9.445 2.944c-.24-.208-.56-.208-.832-.048a1.162 1.162 0 00-.544.72c-.144.448.224.912.688.912.4-.016.848-.368.96-.784.08-.336-.032-.592-.272-.8z" fill="#fff"/><path d="M82.635 7.4a60.471 60.471 0 00-2.928 6.688c-.064.208-.192.4-.288.608-.048.096-.08.208-.112.32-.032.176-.048.352-.096.512-.064.272-.16.544-.224.816-.176.704-.384 1.392-.368 2.128 0 .352.224.624.56.688.304.048.576-.144.704-.496.256-.736.496-1.472.768-2.208.112-.352.112-.336.496-.352a11.753 11.753 0 013.728.464c.176.064.336.128.464.288.288.368.88.288 1.04-.128.064-.176.064-.384.032-.56-.064-.4-.336-.672-.672-.832a11.538 11.538 0 00-1.344-.512c-.32-.112-.656-.16-.992-.256.064-.048.112-.08.16-.112a14.114 14.114 0 002.32-1.808c1.04-1.04 1.904-2.192 2.368-3.6.224-.64.32-1.312.128-1.984-.304-1.024-1.184-1.568-2.304-1.632a8.616 8.616 0 00-2.128.144c-1.12.208-2.208.48-3.248.912a2.78 2.78 0 00-.832.512c-.208.16-.208.384-.08.576.112.176.32.224.56.144.544-.16 1.072-.336 1.6-.48.272-.08.544-.128.864-.208-.08.16-.128.256-.176.368zm-.56 5.152c.592-1.504 1.216-2.992 1.808-4.496.16-.384.288-.768.432-1.152.016-.064.08-.144.144-.144.608-.064 1.216-.112 1.808.032.592.128.864.544.768 1.136-.128.912-.576 1.696-1.104 2.432-.944 1.296-2.224 2.24-3.584 3.056-.224.128-.432.256-.656.384-.016.016-.048.016-.112.048.176-.464.32-.88.496-1.296zm12.607.528c-.032.096-.08.192-.128.304-.432 1.088-.88 2.192-1.328 3.28-.112.288-.176.592-.096.896.096.336.368.544.688.512.304-.016.576-.304.608-.64 0-.08.016-.16.048-.24.528-1.296 1.04-2.608 1.6-3.904.768-1.776 1.744-3.44 2.656-5.136.16-.304.32-.624.416-.944a.628.628 0 00-.72-.816c-.256.048-.4.224-.544.416-.608.816-1.184 1.664-1.84 2.432a242.986 242.986 0 01-4.656 5.264c-.624.688-1.344 1.296-2.016 1.936-.112.096-.256.176-.416.288-.016-.176-.032-.304-.032-.416 0-.848.192-1.68.448-2.48.752-2.272 1.904-4.336 3.184-6.336.096-.16.192-.304.24-.464.128-.336-.064-.704-.4-.704a.797.797 0 00-.496.192c-.208.16-.4.352-.56.56-.752.96-1.44 1.984-2.016 3.056-.816 1.552-1.584 3.136-1.856 4.896-.112.72-.144 1.44.048 2.144.176.64.592 1.04 1.2 1.072.288 0 .608-.064.848-.208.448-.272.896-.576 1.28-.928.976-.96 1.904-1.968 2.848-2.96.336-.352.64-.72.976-1.088l.016.016z" fill="#967E00"/><path d="M6.67 27v7h-.73v-6.36H2.56l-.08 2.34c-.033.967-.113 1.747-.24 2.34-.12.587-.307 1.027-.56 1.32-.253.287-.59.43-1.01.43-.18 0-.367-.023-.56-.07l.06-.66c.113.027.223.04.33.04.293 0 .53-.117.71-.35.187-.233.327-.593.42-1.08.093-.493.157-1.143.19-1.95l.1-3h4.75zm7.862 0l-3.18 5.89c-.227.42-.494.733-.8.94-.3.2-.63.3-.99.3-.267 0-.554-.063-.86-.19l.21-.6c.24.093.46.14.66.14.46 0 .836-.25 1.13-.75l.2-.34L8.062 27h.79l2.44 4.74 2.5-4.74h.74zm6.236 0v7h-.72v-2.9c-.76.327-1.496.49-2.21.49-.82 0-1.46-.2-1.92-.6-.453-.4-.68-.96-.68-1.68V27h.73v2.23c0 .54.17.96.51 1.26.34.3.817.45 1.43.45.7 0 1.414-.167 2.14-.5V27h.72zm10.955 0v7h-8.58v-7h.73v6.36h3.2V27h.73v6.36h3.19V27h.73zm2.357 0h.73v5.8l4.48-5.8h.67v7h-.73v-5.79L34.75 34h-.67v-7zm13.193 6.36V34h-4.95v-7h4.8v.64h-4.06v2.49h3.62v.63h-3.62v2.6h4.21zm8.409-2.97c.486.1.856.297 1.11.59.253.287.38.663.38 1.13 0 .607-.217 1.073-.65 1.4-.427.327-1.057.49-1.89.49h-3.1v-7h2.91c.746 0 1.33.153 1.75.46.42.307.63.75.63 1.33 0 .393-.1.727-.3 1-.2.267-.48.467-.84.6zm-3.42-.22h2.14c.54 0 .953-.11 1.24-.33.293-.22.44-.54.44-.96 0-.42-.147-.74-.44-.96-.287-.22-.7-.33-1.24-.33h-2.14v2.58zm2.37 3.24c1.206 0 1.81-.45 1.81-1.35 0-.88-.604-1.32-1.81-1.32h-2.37v2.67h2.37zm10.067.65c-.693 0-1.32-.153-1.88-.46a3.426 3.426 0 01-1.31-1.27 3.614 3.614 0 01-.47-1.83c0-.673.157-1.28.47-1.82.32-.547.76-.973 1.32-1.28a3.849 3.849 0 011.88-.46c.52 0 1 .087 1.44.26.44.173.813.427 1.12.76l-.47.47c-.547-.553-1.237-.83-2.07-.83-.553 0-1.057.127-1.51.38-.453.253-.81.6-1.07 1.04-.253.44-.38.933-.38 1.48 0 .547.127 1.04.38 1.48.26.44.617.787 1.07 1.04.453.253.957.38 1.51.38.84 0 1.53-.28 2.07-.84l.47.47a3.07 3.07 0 01-1.13.77c-.44.173-.92.26-1.44.26zm8.248-3.67c.487.1.857.297 1.11.59.254.287.38.663.38 1.13 0 .607-.216 1.073-.65 1.4-.427.327-1.056.49-1.89.49h-3.1v-7h2.91c.747 0 1.33.153 1.75.46.42.307.63.75.63 1.33 0 .393-.1.727-.3 1-.2.267-.48.467-.84.6zm-3.42-.22h2.14c.54 0 .954-.11 1.24-.33.294-.22.44-.54.44-.96 0-.42-.146-.74-.44-.96-.286-.22-.7-.33-1.24-.33h-2.14v2.58zm2.37 3.24c1.207 0 1.81-.45 1.81-1.35 0-.88-.603-1.32-1.81-1.32h-2.37v2.67h2.37zm7.46.65a3.906 3.906 0 01-1.89-.46c-.56-.313-1-.74-1.32-1.28a3.56 3.56 0 01-.47-1.82c0-.673.157-1.28.47-1.82.32-.54.76-.963 1.32-1.27a3.84 3.84 0 011.89-.47c.694 0 1.317.153 1.87.46.56.307 1 .733 1.32 1.28.32.54.48 1.147.48 1.82s-.16 1.283-.48 1.83c-.32.54-.76.963-1.32 1.27-.553.307-1.176.46-1.87.46zm0-.66a3.05 3.05 0 001.5-.37 2.76 2.76 0 001.05-1.04c.254-.447.38-.943.38-1.49s-.126-1.04-.38-1.48a2.67 2.67 0 00-1.05-1.04 2.987 2.987 0 00-1.5-.38c-.553 0-1.056.127-1.51.38a2.74 2.74 0 00-1.06 1.04c-.253.44-.38.933-.38 1.48 0 .547.127 1.043.38 1.49.26.44.614.787 1.06 1.04.454.247.957.37 1.51.37zm10.386-.04V34h-4.95v-7h4.8v.64h-4.06v2.49h3.62v.63h-3.62v2.6h4.21zM98.655 27v7h-.71v-5.6l-2.75 4.71h-.35l-2.75-4.68V34h-.71v-7h.61l3.04 5.19 3.01-5.19h.61zM7.61 45.36v2.21h-.69V46H.81L.8 47.57H.11l.01-2.21h.35c.46-.027.78-.39.96-1.09.18-.707.29-1.707.33-3L1.84 39h4.72v6.36h1.05zm-5.19-4.02c-.033 1.067-.117 1.947-.25 2.64-.127.687-.343 1.147-.65 1.38h4.31v-5.72H2.48l-.06 1.7zm11.65 4.02V46H9.12v-7h4.8v.64H9.86v2.49h3.62v.63H9.86v2.6h4.21zM21.2 39v7h-.73v-6.36h-3.38l-.08 2.34c-.033.967-.113 1.747-.24 2.34-.12.587-.306 1.027-.56 1.32-.253.287-.59.43-1.01.43-.18 0-.366-.023-.56-.07l.06-.66c.114.027.224.04.33.04.294 0 .53-.117.71-.35.187-.233.327-.593.42-1.08.094-.493.157-1.143.19-1.95l.1-3h4.75zm7.312 6.36V46h-4.95v-7h4.8v.64h-4.06v2.49h3.62v.63h-3.62v2.6h4.21z" fill="#fff"/></svg>