<svg width="295" height="43" fill="none" xmlns="http://www.w3.org/2000/svg"><path d="M13.68 17.856c1.584-3.168 3.36-6.192 5.568-9.024.768-.912 1.536-1.584 2.784-1.392 0 0 .048-.048.048 0 .24.096 3.072.048 3.408.096.288 0 .624 0 .864.096 1.44.288 2.832.576 4.224.864.336.096.528.24.576.624.192.816.816 1.296 1.536 1.344.72.048 1.392-.384 1.728-1.104.48-1.008.384-2.016-.24-2.976-.672-.96-1.584-1.536-2.64-1.968-2.832-1.104-5.76-1.488-8.736-1.584-1.68-.048-3.36.192-5.04.336-2.928.24-5.808.768-8.592 1.632-1.056.336-2.112.72-3.12 1.2-.768.336-1.104 1.104-1.008 1.824.096.768.72 1.392 1.536 1.488.288.048.576.048.864 0 1.104-.192 2.208-.432 3.312-.624a152.53 152.53 0 013.312-.576c-.768 1.104-1.536 2.064-2.112 3.12-2.064 3.792-4.08 7.632-6.096 11.472-.336.672-.72 1.152-1.488 1.344-1.008.288-2.016.72-3.024 1.104-.48.192-.768.624-.72 1.152 0 .528.336.912.864 1.104.288.048.576.096.816.096.48-.048 1.008-.096 1.488-.096-.672 1.968-1.392 3.888-1.968 5.808C1.296 34.992.672 36.768.576 38.64c-.048 1.056.432 1.824 1.248 2.112.816.336 1.728.048 2.352-.72.384-.48.72-1.056.96-1.632.528-1.248.96-2.496 1.392-3.744A569.533 569.533 0 009.6 26.448c.096-.192.336-.432.48-.48 1.824-.288 3.6-.624 5.424-.816 2.832-.24 5.664-.24 8.448.096.72.096 1.296-.192 1.584-.816a1.482 1.482 0 00-.336-1.776c-.384-.288-.864-.576-1.296-.672-1.584-.24-3.168-.48-4.752-.576-2.448-.144-4.944-.048-7.488.624.72-1.488 1.392-2.832 2.016-4.176zM43.483 7.2c-3.311 6.528-6.287 13.2-8.783 20.064-.193.624-.577 1.2-.864 1.824-.145.288-.24.624-.337.96-.096.528-.144 1.056-.288 1.536-.191.816-.48 1.632-.672 2.448-.528 2.112-1.152 4.176-1.104 6.384 0 1.056.673 1.872 1.68 2.064.913.144 1.728-.432 2.112-1.488.769-2.208 1.489-4.416 2.305-6.624.336-1.056.336-1.008 1.488-1.056a35.259 35.259 0 0111.183 1.392c.528.192 1.008.384 1.392.864.864 1.104 2.64.864 3.12-.384.192-.528.192-1.152.096-1.68-.191-1.2-1.008-2.016-2.016-2.496-1.343-.624-2.688-1.104-4.032-1.536-.96-.336-1.968-.48-2.975-.768.192-.144.336-.24.48-.336 2.495-1.584 4.847-3.36 6.96-5.424 3.12-3.12 5.712-6.576 7.103-10.8.672-1.92.96-3.936.384-5.952-.912-3.072-3.552-4.704-6.912-4.896-2.16-.144-4.271.048-6.383.432-3.36.624-6.625 1.44-9.745 2.736C36.764 4.8 35.9 5.376 35.18 6c-.624.48-.624 1.152-.24 1.728.336.528.96.672 1.68.432 1.632-.48 3.216-1.008 4.8-1.44.816-.24 1.631-.384 2.591-.624-.24.48-.384.768-.528 1.104zm-1.68 15.456c1.777-4.512 3.649-8.976 5.425-13.488.48-1.152.864-2.304 1.295-3.456.048-.192.24-.432.432-.432 1.825-.192 3.648-.336 5.425.096 1.776.384 2.591 1.632 2.303 3.408-.383 2.736-1.727 5.088-3.312 7.296-2.832 3.888-6.672 6.72-10.752 9.168-.672.384-1.295.768-1.968 1.152-.048.048-.144.048-.336.144.529-1.392.96-2.64 1.489-3.888zm21.294-.096c-2.64 2.592-4.608 5.568-5.376 9.264-.767 3.504.96 7.776 6.48 7.488 1.633-.096 3.265-.576 4.849-1.104 5.231-1.776 9.888-4.704 14.448-7.824 1.631-1.104 3.215-2.304 4.8-3.504.671-.48.912-1.152.623-1.824-.24-.672-.864-1.008-1.68-.864a4.768 4.768 0 00-1.487.576c-2.88 1.632-5.713 3.312-8.593 4.944-3.168 1.824-6.383 3.6-9.936 4.656a17.845 17.845 0 01-3.551.672c-1.056.048-1.584-.384-1.68-1.2a4.24 4.24 0 01.096-1.344c.383-1.824 1.247-3.456 2.303-4.944 2.209-3.024 5.04-5.424 8.257-7.344.623-.384 1.343-.576 2.063-.864.672-.24 1.44-.384 2.065-.72.96-.576.96-1.872 0-2.352a1.89 1.89 0 00-1.009-.288c-1.344.096-2.688.24-4.032.288-.96.048-1.92.096-2.88.048-.144 0-.48-.288-.431-.432.096-.576.144-1.248.431-1.728 1.776-2.832 4.225-4.896 7.392-5.952.96-.336 1.92-.336 2.737.432.431.336.96.432 1.487.096.48-.288.672-.768.624-1.344-.096-.912-.623-1.584-1.391-2.064-1.297-.912-2.785-1.104-4.32-.768-4.56 1.104-7.92 3.792-10.368 7.728a6.14 6.14 0 00-.817 3.792c.193 1.536.913 2.784 2.209 3.6-1.153 1.008-2.257 1.92-3.313 2.88zm25.735 0c-2.64 2.592-4.608 5.568-5.376 9.264-.768 3.504.96 7.776 6.48 7.488 1.632-.096 3.264-.576 4.848-1.104 5.232-1.776 9.888-4.704 14.448-7.824 1.632-1.104 3.216-2.304 4.8-3.504.672-.48.912-1.152.624-1.824-.24-.672-.864-1.008-1.68-.864a4.768 4.768 0 00-1.488.576c-2.88 1.632-5.712 3.312-8.592 4.944-3.168 1.824-6.384 3.6-9.936 4.656a17.845 17.845 0 01-3.552.672c-1.056.048-1.584-.384-1.68-1.2a4.24 4.24 0 01.096-1.344c.384-1.824 1.248-3.456 2.304-4.944 2.208-3.024 5.04-5.424 8.256-7.344.624-.384 1.344-.576 2.064-.864.672-.24 1.44-.384 2.064-.72.96-.576.96-1.872 0-2.352a1.89 1.89 0 00-1.008-.288c-1.344.096-2.688.24-4.032.288-.96.048-1.92.096-2.88.048-.144 0-.48-.288-.432-.432.096-.576.144-1.248.432-1.728 1.776-2.832 4.224-4.896 7.392-5.952.96-.336 1.92-.336 2.736.432.432.336.96.432 1.488.096.48-.288.672-.768.624-1.344-.096-.912-.624-1.584-1.392-2.064-1.296-.912-2.784-1.104-4.32-.768-4.56 1.104-7.92 3.792-10.368 7.728a6.14 6.14 0 00-.816 3.792c.192 1.536.912 2.784 2.208 3.6-1.152 1.008-2.256 1.92-3.312 2.88zm21.03 11.712c.576 3.504 3.552 6.528 7.968 5.424 2.688-.672 5.136-1.872 7.392-3.408 4.176-2.784 8.256-5.712 12.432-8.592.624-.432.768-1.104.528-1.776-.288-.672-1.056-1.104-1.776-.96-.384.096-.768.24-1.104.432-1.488.768-3.024 1.536-4.512 2.4-2.592 1.584-5.088 3.216-7.68 4.8-1.968 1.2-3.984 2.304-6.288 2.832-1.2.24-1.872-.192-2.16-1.344a7.161 7.161 0 01-.096-1.008c-.144-2.592.672-5.04 1.488-7.44 1.44-4.272 3.888-8.016 6.72-11.52 1.68-2.064 3.6-3.936 6-5.232 2.112-1.104 3.552-1.2 5.376.768.048 0 .048.048.096.048.816.768 1.872.48 2.208-.576a2.338 2.338 0 000-1.152c-.528-2.256-2.88-4.128-5.184-4.176-1.824-.048-3.504.432-5.136 1.296-3.072 1.68-5.52 4.08-7.728 6.768-3.024 3.792-5.568 7.824-7.104 12.48-.816 2.496-1.536 5.088-1.584 8.064 0 .432.048 1.152.144 1.872zm53.143-8.16c2.4-4.896 4.8-9.792 7.152-14.736.912-1.968 1.728-3.984 2.256-6.048.72-2.64-1.344-4.656-4.032-4.176-1.872.336-3.6 1.152-5.184 2.16-4.08 2.64-7.488 6.048-10.512 9.792-3.456 4.272-6.624 8.736-9.312 13.488-.144.288-.48.576-.768.672-.768.24-1.584.384-2.352.624-1.584.48-3.12.96-4.656 1.536-.768.288-1.056.96-.912 1.584.192.72.768 1.104 1.536 1.056.672-.048 1.344-.192 2.016-.288.864-.144 1.728-.336 2.64-.528-.048.192-.096.288-.144.384-.816 1.92-1.776 3.84-2.496 5.856-.432 1.056-.624 2.256-.768 3.408-.096.768.48 1.488 1.2 1.68.72.192 1.44-.048 1.92-.672.192-.288.288-.576.432-.816 1.872-3.6 3.792-7.2 5.664-10.8.096-.192.288-.384.432-.432a17.682 17.682 0 011.68-.24c1.824-.192 3.6-.384 5.424-.528.96-.096 1.92-.048 2.928-.048-.48 1.2-.96 2.304-1.392 3.456-.576 1.44-1.152 2.88-1.632 4.368-.336.96.096 1.824.96 2.16.768.288 1.584-.096 1.968-.96 1.008-2.016 2.016-4.08 3.024-6.096.48-.912.912-1.776 1.392-2.688 1.68.528 2.256.432 2.592-.336.384-.768.048-1.344-1.296-2.256.096-.24.144-.384.24-.576zm1.44-13.104c-1.872 4.128-3.792 8.208-5.616 12.384-.24.432-.432.48-.912.48-1.392-.048-2.832-.096-4.224-.048-1.44.048-2.88.192-4.416.288.432-.624.768-1.2 1.152-1.728 3.264-4.704 6.672-9.264 10.896-13.2 1.632-1.44 3.408-2.688 5.088-4.08.192-.096.432-.192.624-.336l.144.144c-.912 2.016-1.824 4.08-2.736 6.096zm12.74 6.672c.096-.144.144-.288.24-.48 1.92-3.456 3.887-6.912 5.808-10.368.768-1.392 1.536-2.832 2.208-4.272.432-.912.24-1.68-.384-2.16-.624-.48-1.488-.48-2.208.096a9.246 9.246 0 00-1.68 1.68c-3.072 3.984-5.808 8.208-8.256 12.624-2.688 4.656-5.377 9.312-7.393 14.352-.96 2.448-1.872 4.992-2.112 7.632-.144 1.344.528 2.496 1.584 2.832 1.104.288 2.016-.288 2.592-1.584.336-.72.72-1.488 1.056-2.256a871.944 871.944 0 014.225-9.744c.384-.864.816-1.68 1.248-2.544.72 1.248 1.296 2.448 2.016 3.6 1.392 2.208 2.832 4.464 4.368 6.576.576.816 1.392 1.584 2.208 2.16 1.488.96 3.408 0 3.504-1.728 0-.624-.24-1.296-.48-1.92-1.152-2.64-2.976-4.944-4.656-7.296a114.627 114.627 0 00-2.4-3.456c.288-.096.432-.192.624-.288 5.424-2.736 9.984-6.528 13.824-11.136 1.344-1.584 2.4-3.312 2.784-5.376.192-.816.144-1.632-.432-2.304-.672-.768-1.776-.672-2.112.24-.624 1.728-1.68 3.12-2.88 4.464-2.736 3.024-5.808 5.664-9.12 8.016-1.344.96-2.736 1.872-4.08 2.784-.048-.048-.048-.096-.096-.144zm17.678 2.88c-2.64 2.592-4.608 5.568-5.376 9.264-.768 3.504.96 7.776 6.48 7.488 1.632-.096 3.264-.576 4.848-1.104 5.232-1.776 9.888-4.704 14.448-7.824 1.632-1.104 3.216-2.304 4.8-3.504.672-.48.912-1.152.624-1.824-.24-.672-.864-1.008-1.68-.864a4.768 4.768 0 00-1.488.576c-2.88 1.632-5.712 3.312-8.592 4.944-3.168 1.824-6.384 3.6-9.936 4.656a17.845 17.845 0 01-3.552.672c-1.056.048-1.584-.384-1.68-1.2a4.24 4.24 0 01.096-1.344c.384-1.824 1.248-3.456 2.304-4.944 2.208-3.024 5.04-5.424 8.256-7.344.624-.384 1.344-.576 2.064-.864.672-.24 1.44-.384 2.064-.72.96-.576.96-1.872 0-2.352a1.89 1.89 0 00-1.008-.288c-1.344.096-2.688.24-4.032.288-.96.048-1.92.096-2.88.048-.144 0-.48-.288-.432-.432.096-.576.144-1.248.432-1.728 1.776-2.832 4.224-4.896 7.392-5.952.96-.336 1.92-.336 2.736.432.432.336.96.432 1.488.096.48-.288.672-.768.624-1.344-.096-.912-.624-1.584-1.392-2.064-1.296-.912-2.784-1.104-4.32-.768-4.56 1.104-7.92 3.792-10.368 7.728a6.14 6.14 0 00-.816 3.792c.192 1.536.912 2.784 2.208 3.6-1.152 1.008-2.256 1.92-3.312 2.88zm28.334 8.832c-.72-.624-1.68-.624-2.496-.144-.864.528-1.392 1.248-1.632 2.16-.432 1.344.672 2.736 2.064 2.736 1.2-.048 2.544-1.104 2.88-2.352.24-1.008-.096-1.776-.816-2.4zM244.905 7.2c-3.312 6.528-6.288 13.2-8.784 20.064-.192.624-.576 1.2-.864 1.824-.144.288-.24.624-.336.96-.096.528-.144 1.056-.288 1.536-.192.816-.48 1.632-.672 2.448-.528 2.112-1.152 4.176-1.104 6.384 0 1.056.672 1.872 1.68 2.064.912.144 1.728-.432 2.112-1.488.768-2.208 1.488-4.416 2.304-6.624.336-1.056.336-1.008 1.488-1.056a35.259 35.259 0 0111.184 1.392c.528.192 1.008.384 1.392.864.864 1.104 2.64.864 3.12-.384.192-.528.192-1.152.096-1.68-.192-1.2-1.008-2.016-2.016-2.496-1.344-.624-2.688-1.104-4.032-1.536-.96-.336-1.968-.48-2.976-.768.192-.144.336-.24.48-.336 2.496-1.584 4.848-3.36 6.96-5.424 3.12-3.12 5.712-6.576 7.104-10.8.672-1.92.96-3.936.384-5.952-.912-3.072-3.552-4.704-6.912-4.896-2.16-.144-4.272.048-6.384.432-3.36.624-6.624 1.44-9.744 2.736-.912.336-1.776.912-2.496 1.536-.624.48-.624 1.152-.24 1.728.336.528.96.672 1.68.432 1.632-.48 3.216-1.008 4.8-1.44.816-.24 1.632-.384 2.592-.624-.24.48-.384.768-.528 1.104zm-1.68 15.456c1.776-4.512 3.648-8.976 5.424-13.488.48-1.152.864-2.304 1.296-3.456.048-.192.24-.432.432-.432 1.824-.192 3.648-.336 5.424.096 1.776.384 2.592 1.632 2.304 3.408-.384 2.736-1.728 5.088-3.312 7.296-2.832 3.888-6.672 6.72-10.752 9.168-.672.384-1.296.768-1.968 1.152-.048.048-.144.048-.336.144.528-1.392.96-2.64 1.488-3.888zm37.821 1.584c-.096.288-.24.576-.384.912a844.344 844.344 0 01-3.984 9.84c-.336.864-.528 1.776-.288 2.688.288 1.008 1.104 1.632 2.064 1.536.912-.048 1.728-.912 1.824-1.92 0-.24.048-.48.144-.72 1.584-3.888 3.12-7.824 4.8-11.712 2.304-5.328 5.232-10.32 7.968-15.408.48-.912.96-1.872 1.248-2.832.432-1.44-.768-2.736-2.16-2.448-.768.144-1.2.672-1.632 1.248-1.824 2.448-3.552 4.992-5.52 7.296-4.56 5.328-9.264 10.608-13.968 15.792-1.872 2.064-4.032 3.888-6.048 5.808-.336.288-.768.528-1.248.864-.048-.528-.096-.912-.096-1.248 0-2.544.576-5.04 1.344-7.44 2.256-6.816 5.712-13.008 9.552-19.008.288-.48.576-.912.72-1.392.384-1.008-.192-2.112-1.2-2.112-.528 0-1.104.24-1.488.576a9.278 9.278 0 00-1.68 1.68c-2.256 2.88-4.32 5.952-6.048 9.168-2.448 4.656-4.752 9.408-5.568 14.688-.336 2.16-.432 4.32.144 6.432.528 1.92 1.776 3.12 3.6 3.216.864 0 1.824-.192 2.544-.624 1.344-.816 2.688-1.728 3.84-2.784 2.928-2.88 5.712-5.904 8.544-8.88 1.008-1.056 1.92-2.16 2.928-3.264l.048.048z" fill="#fff"/></svg>