<svg width="55" height="14" fill="none" xmlns="http://www.w3.org/2000/svg"><path d="M.532.974H3.71c.961 0 1.647.313 2.058.938.41.616.616 1.521.616 2.716 0 1.195-.182 2.095-.546 2.702-.364.607-1.017.91-1.96.91h-.98V13H.532V.974zM3.038 6.07c.29 0 .5-.051.63-.154a.748.748 0 00.266-.462c.047-.205.07-.495.07-.868 0-.504-.056-.868-.168-1.092-.112-.224-.336-.336-.672-.336h-.266V6.07h.14zm7.387 7.042c-.793 0-1.339-.261-1.637-.784-.29-.532-.434-1.288-.434-2.268 0-.803.102-1.419.308-1.848.214-.43.508-.742.882-.938.373-.205.942-.43 1.707-.672l.673-.224v-1.05c0-.27-.056-.476-.168-.616-.103-.15-.23-.224-.379-.224-.13 0-.247.06-.35.182-.093.121-.14.285-.14.49v.616h-2.38V5.44c0-1.008.234-1.727.7-2.156.477-.43 1.246-.644 2.31-.644.85 0 1.54.224 2.072.672.532.439.798 1.064.798 1.876V13h-2.436v-1.218c-.12.42-.317.747-.588.98a1.36 1.36 0 01-.938.35zm.966-1.904c.187 0 .318-.075.393-.224.083-.159.125-.35.125-.574V7.554c-.364.14-.634.317-.812.532-.167.215-.252.513-.252.896v1.316c0 .607.182.91.546.91zM18.104 13L16.465 2.752h2.45l.504 5.18.084 1.666.098-1.68.56-5.166h2.45L20.945 13h-2.842zm9.491.112c-1.054 0-1.81-.29-2.268-.868-.457-.579-.686-1.442-.686-2.59V5.538c0-.943.27-1.661.812-2.156.542-.495 1.298-.742 2.268-.742 1.97 0 2.954.966 2.954 2.898v.742c0 .747-.01 1.353-.028 1.82H27.09v1.988c0 .355.038.635.112.84.075.196.234.294.476.294.187 0 .318-.056.392-.168a.694.694 0 00.14-.378c.019-.15.028-.364.028-.644v-.994h2.436v.588c0 1.195-.233 2.077-.7 2.646-.457.56-1.25.84-2.38.84zm.644-6.23V5.566c0-.737-.182-1.106-.546-1.106-.41 0-.616.369-.616 1.106v1.316h1.162zM33.03 13V.904h2.492V13H33.03z" fill="#E4E6A3"/><path d="M38.015 13V.974h4.816v2.338h-2.394V5.23h2.268v2.31h-2.268V13h-2.422zM45.02 2.066V.358h2.45v1.708h-2.45zm0 10.934V2.752h2.45V13h-2.45zm4.93 0V.974h4.816v2.338h-2.394V5.23h2.268v2.31h-2.268V13H49.95z" fill="#FF6262"/></svg>