<svg width="49" height="48" fill="none" xmlns="http://www.w3.org/2000/svg"><g clip-path="url(#clip0)"><path d="M40.017 42.475V46.4c0 .442-.36.8-.804.8H9.875a.802.802 0 01-.804-.8v-3.925c0-4.119 3.355-7.455 7.494-7.456a4.165 4.165 0 003.493-1.886c.744-1.14.668-2.13.668-2.93l.015-.038c-3.607-1.485-6.144-5.022-6.144-9.148v-.314c-1.432 0-2.512-1.126-2.512-2.453v-4.156c-.032-1.446.034-6.549 3.738-10.101C20.129-.137 26.953.2 31.896 2.41a.2.2 0 01-.007.368l-1.289.528c-.193.079-.152.362.055.384l.627.067a10.148 10.148 0 017.507 4.634.214.214 0 01-.026.247 6.034 6.034 0 00-1.66 4.156v5.456a2.46 2.46 0 01-2.466 2.453h-.146v.314c0 4.126-2.537 7.663-6.144 9.148l.015.037c0 .778-.083 1.782.668 2.93a4.165 4.165 0 003.492 1.887c4.14 0 7.495 3.337 7.495 7.456z" fill="#FFDFBA"/><path d="M40.017 42.475V46.4c0 .442-.36.8-.804.8H9.875a.802.802 0 01-.804-.8v-3.925c0-4.119 3.355-7.455 7.494-7.456 1.463 0 2.751-.75 3.493-1.886a6.922 6.922 0 008.972 0 4.165 4.165 0 003.493 1.886c4.138.001 7.494 3.337 7.494 7.456z" fill="#FE4F60"/><path d="M38.788 8.392a.211.211 0 01-.026.246 6.037 6.037 0 00-1.66 4.156v5.456c0 1.239-.937 2.454-2.611 2.454v-6.177c0-2.65-2.16-4.799-4.823-4.799H19.42c-2.664 0-4.823 2.149-4.823 4.8v6.176c-1.432 0-2.512-1.127-2.512-2.454v-4.155c-.032-1.447.034-6.55 3.738-10.102C20.129-.137 26.953.2 31.896 2.41a.2.2 0 01-.007.368l-1.289.528c-.192.08-.152.362.055.384l.627.067a10.143 10.143 0 017.506 4.635z" fill="#42434D"/><path d="M34.49 21.017c0 5.468-4.455 9.898-9.946 9.898-5.174 0-9.947-4.002-9.947-10.211v-6.177c0-2.65 2.16-4.799 4.823-4.799h10.248c2.663 0 4.823 2.149 4.823 4.8v6.489z" fill="#FFEBD2"/><path d="M22.292 27.408c1.635 1.018.345 3.515-1.445 2.8-3.68-1.47-6.25-5.04-6.25-9.192v-6.489c0-1.008.313-1.944.846-2.716.655-.947 2.168-.529 2.168.716v6.49c0 3.65 1.928 6.678 4.68 8.391z" fill="#FFF3E4"/><path d="M28.475 31.844c-2.475 1.031-5.195 1.111-7.863 0 .137-.563.114-.927.114-1.642l.015-.037c2.42 1 5.181 1.002 7.606 0l.015.037c0 .715-.023 1.08.113 1.642z" fill="#FFD6A6"/><path d="M20.613 37.434c-.371.116-.77.18-1.197.184-4.149.036-7.532 3.301-7.532 7.43v.752c0 .773-.63 1.4-1.407 1.4h-.602a.802.802 0 01-.804-.8v-3.925c0-4.119 3.355-7.455 7.494-7.456 1.463 0 2.751-.75 3.493-1.886.298.254.618.482.955.682 1.483.879 1.246 3.104-.4 3.619z" fill="#FF6D7A"/><path d="M28.474 37.434c.372.116.77.18 1.197.184 4.15.036 7.532 3.301 7.532 7.43v.752c0 .773.63 1.4 1.407 1.4h.603a.802.802 0 00.804-.8v-3.925c0-4.119-3.356-7.455-7.494-7.456a4.165 4.165 0 01-3.493-1.886 6.943 6.943 0 01-.956.682c-1.482.879-1.246 3.104.4 3.619z" fill="#E84857"/><path d="M31.89 2.778c-1.182.484-1.35.59-1.76.527-6.598-1.018-12.387 1.7-14.353 8.078a4.762 4.762 0 00-1.18 3.144v3.752c0 1.619-2.512 1.731-2.512-.03v-4.155c-.032-1.446.034-6.549 3.738-10.101C20.129-.137 26.953.2 31.896 2.41a.2.2 0 01-.007.368z" fill="#4D4E59"/><path d="M40.82 42.475V47.2c0 .442-.36.8-.803.8a.802.802 0 01-.804-.8v-4.725c0-3.679-2.992-6.656-6.689-6.656a4.94 4.94 0 01-4.246-2.373.798.798 0 01.269-1.099.806.806 0 011.104.267 3.343 3.343 0 002.873 1.605c4.585 0 8.296 3.692 8.296 8.256zm-14.026-8.018a.8.8 0 01-.614.952 7.724 7.724 0 01-5.98-1.164c-1.696 1.808-3.936 1.574-3.636 1.574-3.697 0-6.69 2.977-6.69 6.656V47.2c0 .442-.359.8-.803.8a.802.802 0 01-.804-.8v-4.725c0-4.563 3.71-8.256 8.296-8.256 1.855 0 3.36-1.487 3.36-3.334v-.21c-3.51-1.67-5.972-5.178-6.122-9.264-1.444-.345-2.52-1.631-2.52-3.161v-4.147c-.043-2.03.26-7.113 3.984-10.686 4.6-4.412 11.975-4.132 17.398-1.534a.8.8 0 01.17 1.332 10.847 10.847 0 016.639 4.754c.078.124.222.318.184.628a.807.807 0 01-.23.508 5.21 5.21 0 00-1.52 3.689v5.456c0 .442-.36.8-.803.8a.802.802 0 01-.804-.8v-5.456c0-1.604.55-3.126 1.562-4.348-1.541-2.194-3.946-3.604-6.665-3.894l-1.413-.15c-.826-.089-.988-1.221-.22-1.536l.643-.263C21.837-.3 12.889 2.926 12.889 14.094v4.156c0 .635.367 1.186.904 1.463v-5.185c0-3.088 2.524-5.6 5.627-5.6h10.248c3.102 0 5.626 2.512 5.626 5.6v6.549c0 6.956-6.83 12.24-13.781 10.204a4.872 4.872 0 01-.421 1.633 6.111 6.111 0 004.745.931.804.804 0 01.957.612zm-2.25-4.342c5.041 0 9.143-4.082 9.143-9.099v-6.489c0-2.205-1.803-3.999-4.02-3.999H19.42c-2.216 0-4.02 1.794-4.02 4v6.488c0 5.017 4.102 9.099 9.144 9.099zM32.682 43.9h-2.411a.802.802 0 00-.804.8c0 .441.36.8.804.8h2.411a.802.802 0 00.804-.8c0-.442-.36-.8-.804-.8z" fill="#000"/></g><defs><clipPath id="clip0"><path fill="#fff" transform="translate(.427)" d="M0 0h48.233v48H0z"/></clipPath></defs></svg>