<svg width="54" height="49" fill="none" xmlns="http://www.w3.org/2000/svg"><path d="M2.074 12.697c.001.189.036.378.103.557l.863 2.378a1.61 1.61 0 001.807 1.02l8.597-1.709a1.612 1.612 0 001.286-1.303l.297-.303.585-3.29-.477-.264-12.84 2.502-.22.412z" fill="#FFA442"/><path d="M4.64 16.859l.409-.078 8.6-1.63a1.612 1.612 0 001.286-1.304l.06-.338.031-.172-10.387 1.97a.516.516 0 01-.58-.327l-.645-1.726a1.595 1.595 0 01-.077-.852l-.342-.33-1.03.276-.201.356c.002.19.036.372.102.55l.967 2.585c.257.72 1.06 1.174 1.807 1.02z" fill="#FF8A3C"/><path d="M39.736 10.048l.469 3.489c.117.66.63 1.178 1.286 1.303l8.245 1.647c.77.146 1.78-.016 2.055-.751l.273-.074.9-2.408c.067-.177.101-.364.103-.551l-.3-.446-13.08-2.534.049.325z" fill="#FFA442"/><path d="M41.756 13.707a.517.517 0 01-.412-.414l-.378-2.03a5.461 5.461 0 00-.225-.924l-.33-.319-1.066-.155-.126.183.63 3.54c.058.744.576 1.435 1.332 1.563l9.01 1.708a1.61 1.61 0 001.807-1.02l.066-.177-10.308-1.955z" fill="#FF8A3C"/><path d="M39.398 9.865c-.091-.514-.715-.705-1.236-.705h-.301l-.24-.31-6.966-.009-.191.32h-6.097l-.23-.311-6.96.094-.207.216h-.302c-.52 0-.966.374-1.057.888L2.64 12.536c-.001-.133-.06-1.275-.028-1.405l.791-2.934c.306-1.24.928-3.78 2.033-4.338a4.255 4.255 0 011.093-.368l6.442-1.287a73.776 73.776 0 0128.889 0l6.44 1.287a4.307 4.307 0 013.337 3.196L53.02 12.3c.033.133.048.268.047.403L40.74 10.34l-1.343-.474z" fill="#FFBF54"/><path d="M3.337 12.402l2.099-8.543s-1.69.73-2.244 2.828L1.81 12.3a1.568 1.568 0 00-.046.404l1.573-.302zm37.404-2.062c-.29-.785-.875-1.18-2.578-1.18.52 0 .965.374 1.057.887l1.521.292zM22.818 5.604h-4.3a1.55 1.55 0 00-1.549 1.553V9.16h7.398V7.157a1.55 1.55 0 00-1.549-1.553zm13.495 0h-4.3a1.55 1.55 0 00-1.55 1.553V9.16h7.398V7.157a1.55 1.55 0 00-1.548-1.553z" fill="#FFA442"/><path d="M35.454 7.157h-1.907l-.483.207a.86.86 0 00-.859.861l.103 3.37c0 .475-.694.86-1.168.86h-7.45a.86.86 0 01-.858-.86V8.018a.86.86 0 00-.859-.861h-1.907l-.483.207a.86.86 0 00-.859.861v8.665h17.279l.31-1.553V8.018a.86.86 0 00-.86-.861z" fill="#FFBF54"/><path d="M33.547 11.42V7.158h-.69a.86.86 0 00-.858.861v3.577a.883.883 0 01-.254.61.877.877 0 01-.605.251h1.375c.57 0 1.032-.463 1.032-1.035zm-13.481 3.4V7.157h-.69a.86.86 0 00-.858.861v9.183h17.795v-1.864h-15.73a.517.517 0 01-.517-.517z" fill="#FFA442"/><path d="M47.37 37.835v7.804l-.002.066c-.035.863-2.06 1.316-2.93 1.316l-35.158.03a1.615 1.615 0 01-1.613-1.619l.103-7.597c0-.209.04-.415.119-.609l7.576-19.057a1.613 1.613 0 011.495-1.009l.407-.27h20.559c.656 0 1.247.399 1.494 1.009l7.83 19.327c.08.194.12.4.12.61z" fill="#FFBF54"/><path d="M9.01 45.187v-7.258a.52.52 0 01.036-.192l8.321-20.847h-.462c-.657 0-1.248.399-1.495 1.009L7.58 37.226c-.08.194-.12.4-.12.61v7.803c-.011.871.745 1.63 1.614 1.618h36.683c.869 0 1.576-.69 1.61-1.552H9.526a.517.517 0 01-.516-.518z" fill="#FFA442"/><path d="M38.74 32.074c0-6.272-5.07-11.356-11.325-11.356-2.733 0-5.24.97-7.196 2.587-2.52 2.083-3.921 7.131-3.921 8.769 0 6.271 4.863 11.148 11.117 11.148.82 0 6.664-1.405 8.741-3.929a11.316 11.316 0 002.583-7.22z" fill="#F7F3F1"/><path d="M28.964 41.876c-6.254 0-11.324-5.084-11.324-11.355 0-2.74.968-5.254 2.58-7.216a11.344 11.344 0 00-4.129 8.768c0 6.272 5.07 11.356 11.324 11.356a11.28 11.28 0 008.741-4.136 11.248 11.248 0 01-7.192 2.583z" fill="#EAE2DF"/><path d="M29.583 32.074a2.17 2.17 0 00-2.988-2.013c-.79.325-1.229 1.953-1.229 2.013 0 1.2.852 2.054 2.05 2.054.209 0 1.682-.44 2.006-1.232.103-.254.161-.531.161-.822z" fill="#EAE2DF"/><path d="M28.601 33.059a2.17 2.17 0 01-2.006-2.997 2.174 2.174 0 00-1.348 2.012c0 1.2.971 2.174 2.168 2.174.907 0 1.683-.56 2.007-1.351-.253.103-.53.162-.821.162z" fill="#DDD3CE"/><path d="M29.222 25.477a1.809 1.809 0 00-2.308-1.74c-.753.218-1.182 1.548-1.182 1.74 0 1 .686 1.687 1.683 1.687.203 0 1.514-.43 1.734-1.18.048-.163.073-.33.073-.507z" fill="#EAE2DF"/><path d="M28.65 26.05a1.81 1.81 0 01-1.736-2.313 1.809 1.809 0 00-1.305 1.74c0 1 .809 1.811 1.806 1.811a1.8 1.8 0 001.734-1.304 1.79 1.79 0 01-.499.066z" fill="#DDD3CE"/><path d="M29.222 38.67a1.809 1.809 0 00-2.308-1.74c-.753.22-1.182 1.549-1.182 1.74 0 1.001.686 1.688 1.683 1.688.203 0 1.514-.43 1.734-1.18a1.77 1.77 0 00.073-.507z" fill="#EAE2DF"/><path d="M28.65 39.244a1.809 1.809 0 01-1.736-2.313 1.809 1.809 0 00-1.305 1.74c0 1 .809 1.811 1.806 1.811a1.8 1.8 0 001.734-1.304 1.79 1.79 0 01-.499.066z" fill="#DDD3CE"/><path d="M34.919 28.775a1.809 1.809 0 00-2.308-1.74c-.753.219-1.181 1.548-1.181 1.74 0 1 .685 1.688 1.682 1.688.203 0 1.514-.43 1.734-1.18.048-.163.073-.33.073-.508z" fill="#EAE2DF"/><path d="M34.348 29.348a1.809 1.809 0 01-1.737-2.313 1.809 1.809 0 00-1.305 1.74c0 1 .809 1.812 1.807 1.812a1.8 1.8 0 001.733-1.305 1.794 1.794 0 01-.498.066z" fill="#DDD3CE"/><path d="M23.524 28.775a1.809 1.809 0 00-2.308-1.74c-.752.219-1.181 1.548-1.181 1.74 0 1 .685 1.688 1.683 1.688.202 0 1.513-.43 1.734-1.18.048-.163.072-.33.072-.508z" fill="#EAE2DF"/><path d="M22.953 29.348a1.809 1.809 0 01-1.737-2.313 1.809 1.809 0 00-1.305 1.74c0 1 .81 1.812 1.807 1.812a1.8 1.8 0 001.734-1.305 1.796 1.796 0 01-.499.066z" fill="#DDD3CE"/><path d="M34.919 35.372a1.809 1.809 0 00-2.308-1.74c-.753.218-1.181 1.548-1.181 1.74 0 1 .685 1.688 1.682 1.688.203 0 1.514-.43 1.734-1.18.048-.164.073-.33.073-.508z" fill="#EAE2DF"/><path d="M34.348 35.945a1.809 1.809 0 01-1.737-2.313 1.809 1.809 0 00-1.305 1.74c0 1 .809 1.812 1.807 1.812a1.8 1.8 0 001.733-1.305 1.79 1.79 0 01-.498.066z" fill="#DDD3CE"/><path d="M23.524 35.372a1.809 1.809 0 00-2.308-1.74c-.752.218-1.181 1.548-1.181 1.74 0 1 .685 1.688 1.683 1.688.202 0 1.513-.43 1.734-1.18.048-.164.072-.33.072-.508z" fill="#EAE2DF"/><path d="M22.953 35.945a1.809 1.809 0 01-1.737-2.313 1.81 1.81 0 00-1.305 1.74c0 1 .81 1.812 1.807 1.812a1.8 1.8 0 001.734-1.305 1.792 1.792 0 01-.499.066z" fill="#DDD3CE"/><path d="M53.772 12.114L52.39 6.5a5.102 5.102 0 00-3.938-3.772l-6.441-1.286A74.714 74.714 0 0027.415 0c-4.623 0-9.27.434-13.814 1.291a.776.776 0 00.286 1.526c4.45-.839 9-1.264 13.528-1.264 4.789 0 9.598.475 14.294 1.413l6.441 1.286a3.546 3.546 0 012.736 2.621l1.195 4.85-12.28-2.34c-.31-.6-.933-1-1.639-1h-1.075v-.365c0-.903-.733-1.638-1.633-1.638h-2.596c-.9 0-1.633.735-1.633 1.638v.366h-7.619v-.366c0-.903-.733-1.638-1.633-1.638h-2.596c-.9 0-1.633.735-1.633 1.638v.366h-1.076c-.706 0-1.328.399-1.639 1l-12.28 2.34 1.195-4.85A3.546 3.546 0 016.68 4.251l3.656-.73a.776.776 0 00-.303-1.523l-3.655.73A5.102 5.102 0 002.441 6.5l-1.382 5.613c-.116.47-.088.959.082 1.413l.967 2.585a2.38 2.38 0 002.676 1.51l9.009-1.709a2.4 2.4 0 001.905-1.93l.675-3.8a.3.3 0 01.295-.247h1.076v6.177h-.84c-.976 0-1.844.587-2.211 1.494l-7.83 19.327c-.117.287-.177.59-.177.901v7.804a2.394 2.394 0 002.388 2.394h20.709a.775.775 0 000-1.552H9.074a.841.841 0 01-.839-.842v-7.804c0-.11.02-.216.062-.317l7.83-19.327a.836.836 0 01.778-.525h21.02c.344 0 .65.206.778.525l2.887 7.125a.773.773 0 101.435-.584l-2.887-7.126a2.378 2.378 0 00-2.212-1.493h-.84V9.936h1.077a.3.3 0 01.294.248l.676 3.8a2.401 2.401 0 001.904 1.93l9.01 1.708a2.38 2.38 0 002.676-1.51l.966-2.586c.17-.453.199-.942.083-1.412zm-40.267 2.274l-9.009 1.708a.834.834 0 01-.938-.53l-.844-2.255 11.935-2.274-.476 2.674a.842.842 0 01-.668.677zm17.72-4.451v1.658a.085.085 0 01-.085.085h-7.45a.085.085 0 01-.084-.085V9.936h7.619zm-11.933 6.177V8.018c0-.047.038-.085.085-.085h2.596c.047 0 .085.038.085.085v3.577c0 .903.732 1.637 1.633 1.637h7.449c.9 0 1.633-.734 1.633-1.637V8.018c0-.047.038-.085.084-.085h2.597c.046 0 .084.038.084.085v8.096H19.292zm31.043-.018l-9.01-1.708a.842.842 0 01-.668-.677l-.475-2.674 11.935 2.274-.844 2.256a.834.834 0 01-.938.53z" fill="#000"/><path d="M44.382 28.083a.773.773 0 10-1.434.584l3.586 8.852c.04.1.062.207.062.316v7.804a.841.841 0 01-.84.842h-12.36a.775.775 0 000 1.552h12.36a2.394 2.394 0 002.388-2.394v-7.804c0-.31-.059-.614-.175-.901l-3.587-8.851z" fill="#000"/><path d="M27.415 44.206c6.671 0 12.098-5.443 12.098-12.132 0-6.69-5.427-12.132-12.098-12.132-4.95 0-9.352 2.972-11.214 7.572-.161.398.03.85.426 1.012a.773.773 0 001.009-.428 10.512 10.512 0 019.78-6.603c5.817 0 10.549 4.745 10.549 10.579 0 5.833-4.733 10.579-10.55 10.579-5.817 0-10.55-4.746-10.55-10.58 0-.224.008-.452.022-.677a.774.774 0 10-1.545-.098c-.017.258-.025.519-.025.776 0 6.69 5.427 12.132 12.098 12.132z" fill="#000"/><path d="M27.415 34.743a2.668 2.668 0 002.662-2.67 2.668 2.668 0 00-2.662-2.668 2.668 2.668 0 00-2.661 2.669 2.668 2.668 0 002.661 2.669zm0-3.786a1.116 1.116 0 010 2.233 1.116 1.116 0 010-2.232zm0-3.19a2.29 2.29 0 000-4.58 2.29 2.29 0 000 4.58zm0-3.028a.738.738 0 010 1.475.737.737 0 010-1.475zm-5.697 6.327a2.29 2.29 0 000-4.581 2.29 2.29 0 000 4.58zm0-3.028a.738.738 0 010 1.475.738.738 0 010-1.476zm0 9.625a2.29 2.29 0 000-4.581 2.29 2.29 0 000 4.58zm0-3.028a.738.738 0 010 1.475.738.738 0 010-1.475zm5.697 6.326a2.29 2.29 0 000-4.58 2.29 2.29 0 000 4.58zm0-3.028a.738.738 0 010 1.475.737.737 0 010-1.475zm5.697-.27a2.29 2.29 0 000-4.581 2.29 2.29 0 000 4.58zm0-3.028a.738.738 0 010 1.475.737.737 0 010-1.475zm0-3.566a2.29 2.29 0 000-4.581 2.29 2.29 0 000 4.58zm0-3.028a.737.737 0 010 1.475.738.738 0 010-1.475zM10.858 42.042a.775.775 0 000 1.553h4.532a.775.775 0 000-1.553h-4.532z" fill="#000"/></svg>