<svg width="30" height="30" fill="none" xmlns="http://www.w3.org/2000/svg"><path d="M15.02 0C6.743 0 .035 6.709.035 14.985c0 6.348 3.95 11.768 9.526 13.95-.133-1.187-.25-3.003.048-4.297a6904.62 6904.62 0 011.758-7.446s-.449-.904-.449-2.227c0-2.08 1.211-3.637 2.71-3.637 1.28 0 1.9.957 1.9 2.11 0 1.284-.816 3.207-1.24 4.99-.357 1.49.747 2.704 2.217 2.704 2.661 0 4.712-2.808 4.712-6.86 0-3.575-2.579-6.085-6.26-6.085-4.263 0-6.763 3.204-6.763 6.499 0 1.289.493 2.676 1.114 3.423a.464.464 0 01.102.435c-.113.468-.367 1.499-.416 1.704-.068.279-.214.337-.502.205-1.866-.864-3.042-3.599-3.042-5.805 0-4.722 3.438-9.068 9.902-9.068 5.196 0 9.239 3.71 9.239 8.652 0 5.171-3.257 9.331-7.788 9.331-1.519 0-2.945-.786-3.447-1.724l-.938 3.56c-.336 1.304-1.255 2.939-1.875 3.93 1.406.43 2.886.67 4.438.67 8.262 0 14.98-6.704 14.98-14.985 0-8.276-6.718-14.98-14.98-14.98L15.02 0z" fill="#fff"/></svg>