<svg width="14" height="14" fill="none" xmlns="http://www.w3.org/2000/svg"><path d="M7 14c-.194 0-.534-.125-1.242-1.2-.445-.68-.961-1.627-1.451-2.667a29.287 29.287 0 01-1.261-3.112C2.69 5.95 2.5 5.078 2.5 4.501c0-1.202.468-2.332 1.318-3.181A4.47 4.47 0 017 0c1.202 0 2.332.468 3.181 1.318a4.47 4.47 0 011.318 3.181c0 1.31-.946 3.77-1.83 5.632-.492 1.037-1.009 1.983-1.456 2.667a6.391 6.391 0 01-.634.842c-.226.246-.412.36-.579.36zM7 .353c-1.108 0-2.15.43-2.932 1.214A4.125 4.125 0 002.853 4.5c0 1.042.697 3.196 1.773 5.483.482 1.026.99 1.957 1.426 2.623.667 1.012.921 1.042.948 1.042.009 0 .248-.012.919-1.042.438-.67.946-1.603 1.43-2.625 1.092-2.3 1.797-4.451 1.797-5.483a4.11 4.11 0 00-1.214-2.931A4.12 4.12 0 007 .353z" fill="#fff"/><path d="M7 6.979a2.58 2.58 0 01-2.576-2.576A2.58 2.58 0 017 1.828a2.58 2.58 0 012.575 2.575A2.58 2.58 0 017 6.98zM7 2.18a2.226 2.226 0 00-2.223 2.223c0 1.226.997 2.223 2.223 2.223a2.226 2.226 0 002.223-2.223A2.226 2.226 0 007 2.18z" fill="#fff"/></svg>