<svg width="404" height="67" fill="none" xmlns="http://www.w3.org/2000/svg"><path d="M44.058 17.573a1.557 1.557 0 00-1.304-.128 6892.573 6892.573 0 01-12.41 4.326 7.78 7.78 0 00-4.318-2.412 8.219 8.219 0 00-4.451-5.975l-.438-.22a1.557 1.557 0 00-1.392 2.784l.438.22a5.127 5.127 0 012.672 3.254c-3.288.753-5.788 3.592-6.025 7.046a7614.087 7614.087 0 00-15.788 5.5A1.556 1.556 0 000 33.439v16.599h.001c0 .644.401 1.246 1.044 1.47L42.756 66.03a1.552 1.552 0 001.058-.013l.157-.036c.86-.2 3.146-.728 5.215-2.427 2.614-2.149 3.939-5.3 3.939-9.368v-20.75c0-.43-.103-10.583-9.067-15.864zm-19.467 4.764a4.674 4.674 0 014.67 4.668 4.674 4.674 0 01-4.67 4.669 4.674 4.674 0 01-4.67-4.669 4.674 4.674 0 014.67-4.668zm-7.331 7.276c1.075 3.011 3.954 5.173 7.331 5.173 4.291 0 7.782-3.49 7.782-7.78 0-.875-.147-1.715-.414-2.5 3.249-1.13 7.16-2.493 11.12-3.878 6.852 4.49 6.933 12.725 6.933 12.81 0 7.218-5.201 11.543-6.961 12.8l-8.607-3.013a1.556 1.556 0 00-2.071 1.469v6.38c0 .858-.698 1.556-1.556 1.556a1.558 1.558 0 01-1.557-1.556v-8.559c0-.662-.42-1.252-1.046-1.47L6.288 33.433c3.72-1.299 7.418-2.585 10.972-3.82zm8.887 19.014L3.114 40.63v-5.005l23.035 7.997v5.005zM3.114 43.925L26.23 51.95a4.676 4.676 0 004.586 3.792c1.159 0 2.22-.425 3.037-1.127l7.857 2.75v5.005L3.113 48.931v-5.006zM41.71 54.068l-6.294-2.202a4.67 4.67 0 00.069-.792v-4.186l6.225 2.178v5.002zm8.301.119c0 4.257-1.702 6.985-5.188 8.297V48.798a21.159 21.159 0 005.188-5.304v10.693z" fill="#fff"/><path d="M42.749 28.25a1.556 1.556 0 100-3.113 1.556 1.556 0 000 3.113zm2.075 7.262a1.556 1.556 0 100-3.112 1.556 1.556 0 000 3.112zm-5.188 6.225a1.556 1.556 0 100-3.113 1.556 1.556 0 000 3.113zm-3.113-7.262a1.556 1.556 0 100-3.112 1.556 1.556 0 000 3.112zm56.582 1.491c1.749-3.498 3.71-6.837 6.148-9.964.848-1.007 1.696-1.749 3.074-1.537 0 0 .053-.053.053 0 .265.106 3.392.053 3.763.106.318 0 .689 0 .954.106 1.59.318 3.127.636 4.664.954.371.106.583.265.636.689.212.901.901 1.431 1.696 1.484.795.053 1.537-.424 1.908-1.219.53-1.113.424-2.226-.265-3.286-.742-1.06-1.749-1.696-2.915-2.173-3.127-1.219-6.36-1.643-9.646-1.749-1.855-.053-3.71.212-5.565.371-3.233.265-6.413.848-9.487 1.802-1.166.371-2.332.795-3.445 1.325-.848.371-1.219 1.219-1.113 2.014.106.848.795 1.537 1.696 1.643.318.053.636.053.954 0 1.219-.212 2.438-.477 3.657-.689 1.166-.212 2.332-.424 3.657-.636-.848 1.219-1.696 2.279-2.332 3.445-2.279 4.187-4.505 8.427-6.731 12.667-.371.742-.795 1.272-1.643 1.484-1.113.318-2.226.795-3.339 1.219-.53.212-.848.689-.795 1.272 0 .583.371 1.007.954 1.219.318.053.636.106.901.106.53-.053 1.113-.106 1.643-.106-.742 2.173-1.537 4.293-2.173 6.413-.583 1.961-1.272 3.922-1.378 5.989-.053 1.166.477 2.014 1.378 2.332.901.371 1.908.053 2.597-.795a7.672 7.672 0 001.06-1.802c.583-1.378 1.06-2.756 1.537-4.134 1.166-3.021 2.279-6.042 3.392-9.063.106-.212.371-.477.53-.53 2.014-.318 3.975-.689 5.989-.901 3.127-.265 6.254-.265 9.328.106.795.106 1.431-.212 1.749-.901a1.636 1.636 0 00-.371-1.961c-.424-.318-.954-.636-1.431-.742-1.749-.265-3.498-.53-5.247-.636-2.703-.159-5.459-.053-8.268.689.795-1.643 1.537-3.127 2.226-4.611zM126.013 24.2c-3.657 7.208-6.943 14.575-9.699 22.154-.212.689-.636 1.325-.954 2.014-.159.318-.265.689-.371 1.06-.106.583-.159 1.166-.318 1.696-.212.901-.53 1.802-.742 2.703-.583 2.332-1.272 4.611-1.219 7.049 0 1.166.742 2.067 1.855 2.279 1.007.159 1.908-.477 2.332-1.643.848-2.438 1.643-4.876 2.544-7.314.371-1.166.371-1.113 1.643-1.166 4.187-.159 8.321.371 12.349 1.537.583.212 1.113.424 1.537.954.954 1.219 2.915.954 3.445-.424.212-.583.212-1.272.106-1.855-.212-1.325-1.113-2.226-2.226-2.756-1.484-.689-2.968-1.219-4.452-1.696-1.06-.371-2.173-.53-3.286-.848.212-.159.371-.265.53-.371 2.756-1.749 5.353-3.71 7.685-5.989 3.445-3.445 6.307-7.261 7.844-11.925.742-2.12 1.06-4.346.424-6.572-1.007-3.392-3.922-5.194-7.632-5.406-2.385-.159-4.717.053-7.049.477-3.71.689-7.314 1.59-10.759 3.021-1.007.371-1.961 1.007-2.756 1.696-.689.53-.689 1.272-.265 1.908.371.583 1.06.742 1.855.477 1.802-.53 3.551-1.113 5.3-1.59.901-.265 1.802-.424 2.862-.689-.265.53-.424.848-.583 1.219zm-1.855 17.066c1.961-4.982 4.028-9.911 5.989-14.893.53-1.272.954-2.544 1.431-3.816.053-.212.265-.477.477-.477 2.014-.212 4.028-.371 5.989.106 1.961.424 2.862 1.802 2.544 3.763-.424 3.021-1.908 5.618-3.657 8.056-3.127 4.293-7.367 7.42-11.872 10.123-.742.424-1.431.848-2.173 1.272-.053.053-.159.053-.371.159.583-1.537 1.06-2.915 1.643-4.293zm23.512-.106c-2.915 2.862-5.088 6.148-5.936 10.229-.848 3.869 1.06 8.586 7.155 8.268 1.802-.106 3.604-.636 5.353-1.219 5.777-1.961 10.918-5.194 15.953-8.639 1.802-1.219 3.551-2.544 5.3-3.869.742-.53 1.007-1.272.689-2.014-.265-.742-.954-1.113-1.855-.954a5.265 5.265 0 00-1.643.636c-3.18 1.802-6.307 3.657-9.487 5.459-3.498 2.014-7.049 3.975-10.971 5.141a19.704 19.704 0 01-3.922.742c-1.166.053-1.749-.424-1.855-1.325-.053-.477 0-1.007.106-1.484.424-2.014 1.378-3.816 2.544-5.459 2.438-3.339 5.565-5.989 9.116-8.109.689-.424 1.484-.636 2.279-.954.742-.265 1.59-.424 2.279-.795 1.06-.636 1.06-2.067 0-2.597a2.086 2.086 0 00-1.113-.318c-1.484.106-2.968.265-4.452.318-1.06.053-2.12.106-3.18.053-.159 0-.53-.318-.477-.477.106-.636.159-1.378.477-1.908 1.961-3.127 4.664-5.406 8.162-6.572 1.06-.371 2.12-.371 3.021.477.477.371 1.06.477 1.643.106.53-.318.742-.848.689-1.484-.106-1.007-.689-1.749-1.537-2.279-1.431-1.007-3.074-1.219-4.77-.848-5.035 1.219-8.745 4.187-11.448 8.533a6.78 6.78 0 00-.901 4.187c.212 1.696 1.007 3.074 2.438 3.975-1.272 1.113-2.491 2.12-3.657 3.18zm28.415 0c-2.915 2.862-5.088 6.148-5.936 10.229-.848 3.869 1.06 8.586 7.155 8.268 1.802-.106 3.604-.636 5.353-1.219 5.777-1.961 10.918-5.194 15.953-8.639 1.802-1.219 3.551-2.544 5.3-3.869.742-.53 1.007-1.272.689-2.014-.265-.742-.954-1.113-1.855-.954a5.265 5.265 0 00-1.643.636c-3.18 1.802-6.307 3.657-9.487 5.459-3.498 2.014-7.049 3.975-10.971 5.141a19.704 19.704 0 01-3.922.742c-1.166.053-1.749-.424-1.855-1.325-.053-.477 0-1.007.106-1.484.424-2.014 1.378-3.816 2.544-5.459 2.438-3.339 5.565-5.989 9.116-8.109.689-.424 1.484-.636 2.279-.954.742-.265 1.59-.424 2.279-.795 1.06-.636 1.06-2.067 0-2.597a2.086 2.086 0 00-1.113-.318c-1.484.106-2.968.265-4.452.318-1.06.053-2.12.106-3.18.053-.159 0-.53-.318-.477-.477.106-.636.159-1.378.477-1.908 1.961-3.127 4.664-5.406 8.162-6.572 1.06-.371 2.12-.371 3.021.477.477.371 1.06.477 1.643.106.53-.318.742-.848.689-1.484-.106-1.007-.689-1.749-1.537-2.279-1.431-1.007-3.074-1.219-4.77-.848-5.035 1.219-8.745 4.187-11.448 8.533a6.78 6.78 0 00-.901 4.187c.212 1.696 1.007 3.074 2.438 3.975-1.272 1.113-2.491 2.12-3.657 3.18zm23.221 12.932c.636 3.869 3.922 7.208 8.798 5.989 2.968-.742 5.671-2.067 8.162-3.763 4.611-3.074 9.116-6.307 13.727-9.487.689-.477.848-1.219.583-1.961-.318-.742-1.166-1.219-1.961-1.06a4.861 4.861 0 00-1.219.477c-1.643.848-3.339 1.696-4.982 2.65-2.862 1.749-5.618 3.551-8.48 5.3-2.173 1.325-4.399 2.544-6.943 3.127-1.325.265-2.067-.212-2.385-1.484-.053-.371-.106-.742-.106-1.113-.159-2.862.742-5.565 1.643-8.215 1.59-4.717 4.293-8.851 7.42-12.72 1.855-2.279 3.975-4.346 6.625-5.777 2.332-1.219 3.922-1.325 5.936.848.053 0 .053.053.106.053.901.848 2.067.53 2.438-.636.106-.424.106-.901 0-1.272-.583-2.491-3.18-4.558-5.724-4.611-2.014-.053-3.869.477-5.671 1.431-3.392 1.855-6.095 4.505-8.533 7.473-3.339 4.187-6.148 8.639-7.844 13.78-.901 2.756-1.696 5.618-1.749 8.904 0 .477.053 1.272.159 2.067zm58.679-9.01c2.65-5.406 5.3-10.812 7.897-16.271 1.007-2.173 1.908-4.399 2.491-6.678.795-2.915-1.484-5.141-4.452-4.611-2.067.371-3.975 1.272-5.724 2.385-4.505 2.915-8.268 6.678-11.607 10.812-3.816 4.717-7.314 9.646-10.282 14.893-.159.318-.53.636-.848.742-.848.265-1.749.424-2.597.689-1.749.53-3.445 1.06-5.141 1.696-.848.318-1.166 1.06-1.007 1.749.212.795.848 1.219 1.696 1.166.742-.053 1.484-.212 2.226-.318.954-.159 1.908-.371 2.915-.583-.053.212-.106.318-.159.424-.901 2.12-1.961 4.24-2.756 6.466-.477 1.166-.689 2.491-.848 3.763-.106.848.53 1.643 1.325 1.855.795.212 1.59-.053 2.12-.742.212-.318.318-.636.477-.901 2.067-3.975 4.187-7.95 6.254-11.925.106-.212.318-.424.477-.477a19.524 19.524 0 011.855-.265c2.014-.212 3.975-.424 5.989-.583 1.06-.106 2.12-.053 3.233-.053-.53 1.325-1.06 2.544-1.537 3.816-.636 1.59-1.272 3.18-1.802 4.823-.371 1.06.106 2.014 1.06 2.385.848.318 1.749-.106 2.173-1.06 1.113-2.226 2.226-4.505 3.339-6.731.53-1.007 1.007-1.961 1.537-2.968 1.855.583 2.491.477 2.862-.371.424-.848.053-1.484-1.431-2.491.106-.265.159-.424.265-.636zm1.59-14.469c-2.067 4.558-4.187 9.063-6.201 13.674-.265.477-.477.53-1.007.53-1.537-.053-3.127-.106-4.664-.053-1.59.053-3.18.212-4.876.318.477-.689.848-1.325 1.272-1.908 3.604-5.194 7.367-10.229 12.031-14.575 1.802-1.59 3.763-2.968 5.618-4.505.212-.106.477-.212.689-.371l.159.159c-1.007 2.226-2.014 4.505-3.021 6.731zm14.066 7.367c.106-.159.159-.318.265-.53 2.12-3.816 4.293-7.632 6.413-11.448.848-1.537 1.696-3.127 2.438-4.717.477-1.007.265-1.855-.424-2.385-.689-.53-1.643-.53-2.438.106a10.244 10.244 0 00-1.855 1.855c-3.392 4.399-6.413 9.063-9.116 13.939-2.968 5.141-5.936 10.282-8.162 15.847-1.06 2.703-2.067 5.512-2.332 8.427-.159 1.484.583 2.756 1.749 3.127 1.219.318 2.226-.318 2.862-1.749.371-.795.795-1.643 1.166-2.491a942.608 942.608 0 014.664-10.759c.424-.954.901-1.855 1.378-2.809.795 1.378 1.431 2.703 2.226 3.975 1.537 2.438 3.127 4.929 4.823 7.261.636.901 1.537 1.749 2.438 2.385 1.643 1.06 3.763 0 3.869-1.908 0-.689-.265-1.431-.53-2.12-1.272-2.915-3.286-5.459-5.141-8.056a126.567 126.567 0 00-2.65-3.816c.318-.106.477-.212.689-.318 5.989-3.021 11.024-7.208 15.264-12.296 1.484-1.749 2.65-3.657 3.074-5.936.212-.901.159-1.802-.477-2.544-.742-.848-1.961-.742-2.332.265-.689 1.908-1.855 3.445-3.18 4.929-3.021 3.339-6.413 6.254-10.07 8.851-1.484 1.06-3.021 2.067-4.505 3.074-.053-.053-.053-.106-.106-.159zm19.52 3.18c-2.915 2.862-5.088 6.148-5.936 10.229-.848 3.869 1.06 8.586 7.155 8.268 1.802-.106 3.604-.636 5.353-1.219 5.777-1.961 10.918-5.194 15.953-8.639 1.802-1.219 3.551-2.544 5.3-3.869.742-.53 1.007-1.272.689-2.014-.265-.742-.954-1.113-1.855-.954a5.265 5.265 0 00-1.643.636c-3.18 1.802-6.307 3.657-9.487 5.459-3.498 2.014-7.049 3.975-10.971 5.141a19.704 19.704 0 01-3.922.742c-1.166.053-1.749-.424-1.855-1.325-.053-.477 0-1.007.106-1.484.424-2.014 1.378-3.816 2.544-5.459 2.438-3.339 5.565-5.989 9.116-8.109.689-.424 1.484-.636 2.279-.954.742-.265 1.59-.424 2.279-.795 1.06-.636 1.06-2.067 0-2.597a2.086 2.086 0 00-1.113-.318c-1.484.106-2.968.265-4.452.318-1.06.053-2.12.106-3.18.053-.159 0-.53-.318-.477-.477.106-.636.159-1.378.477-1.908 1.961-3.127 4.664-5.406 8.162-6.572 1.06-.371 2.12-.371 3.021.477.477.371 1.06.477 1.643.106.53-.318.742-.848.689-1.484-.106-1.007-.689-1.749-1.537-2.279-1.431-1.007-3.074-1.219-4.77-.848-5.035 1.219-8.745 4.187-11.448 8.533a6.78 6.78 0 00-.901 4.187c.212 1.696 1.007 3.074 2.438 3.975-1.272 1.113-2.491 2.12-3.657 3.18zm31.286 9.752c-.795-.689-1.855-.689-2.756-.159-.954.583-1.537 1.378-1.802 2.385-.477 1.484.742 3.021 2.279 3.021 1.325-.053 2.809-1.219 3.18-2.597.265-1.113-.106-1.961-.901-2.65zM348.416 24.2c-3.657 7.208-6.943 14.575-9.699 22.154-.212.689-.636 1.325-.954 2.014-.159.318-.265.689-.371 1.06-.106.583-.159 1.166-.318 1.696-.212.901-.53 1.802-.742 2.703-.583 2.332-1.272 4.611-1.219 7.049 0 1.166.742 2.067 1.855 2.279 1.007.159 1.908-.477 2.332-1.643.848-2.438 1.643-4.876 2.544-7.314.371-1.166.371-1.113 1.643-1.166 4.187-.159 8.321.371 12.349 1.537.583.212 1.113.424 1.537.954.954 1.219 2.915.954 3.445-.424.212-.583.212-1.272.106-1.855-.212-1.325-1.113-2.226-2.226-2.756-1.484-.689-2.968-1.219-4.452-1.696-1.06-.371-2.173-.53-3.286-.848.212-.159.371-.265.53-.371 2.756-1.749 5.353-3.71 7.685-5.989 3.445-3.445 6.307-7.261 7.844-11.925.742-2.12 1.06-4.346.424-6.572-1.007-3.392-3.922-5.194-7.632-5.406-2.385-.159-4.717.053-7.049.477-3.71.689-7.314 1.59-10.759 3.021-1.007.371-1.961 1.007-2.756 1.696-.689.53-.689 1.272-.265 1.908.371.583 1.06.742 1.855.477 1.802-.53 3.551-1.113 5.3-1.59.901-.265 1.802-.424 2.862-.689-.265.53-.424.848-.583 1.219zm-1.855 17.066c1.961-4.982 4.028-9.911 5.989-14.893.53-1.272.954-2.544 1.431-3.816.053-.212.265-.477.477-.477 2.014-.212 4.028-.371 5.989.106 1.961.424 2.862 1.802 2.544 3.763-.424 3.021-1.908 5.618-3.657 8.056-3.127 4.293-7.367 7.42-11.872 10.123-.742.424-1.431.848-2.173 1.272-.053.053-.159.053-.371.159.583-1.537 1.06-2.915 1.643-4.293zm41.761 1.749c-.106.318-.265.636-.424 1.007a932.297 932.297 0 01-4.399 10.865c-.371.954-.583 1.961-.318 2.968.318 1.113 1.219 1.802 2.279 1.696 1.007-.053 1.908-1.007 2.014-2.12 0-.265.053-.53.159-.795 1.749-4.293 3.445-8.639 5.3-12.932 2.544-5.883 5.777-11.395 8.798-17.013.53-1.007 1.06-2.067 1.378-3.127.477-1.59-.848-3.021-2.385-2.703-.848.159-1.325.742-1.802 1.378-2.014 2.703-3.922 5.512-6.095 8.056-5.035 5.883-10.229 11.713-15.423 17.437-2.067 2.279-4.452 4.293-6.678 6.413-.371.318-.848.583-1.378.954-.053-.583-.106-1.007-.106-1.378 0-2.809.636-5.565 1.484-8.215 2.491-7.526 6.307-14.363 10.547-20.988.318-.53.636-1.007.795-1.537.424-1.113-.212-2.332-1.325-2.332-.583 0-1.219.265-1.643.636a10.244 10.244 0 00-1.855 1.855c-2.491 3.18-4.77 6.572-6.678 10.123-2.703 5.141-5.247 10.388-6.148 16.218-.371 2.385-.477 4.77.159 7.102.583 2.12 1.961 3.445 3.975 3.551.954 0 2.014-.212 2.809-.689 1.484-.901 2.968-1.908 4.24-3.074 3.233-3.18 6.307-6.519 9.434-9.805 1.113-1.166 2.12-2.385 3.233-3.604l.053.053z" fill="#fff"/></svg>