<svg width="100" height="100" fill="none" xmlns="http://www.w3.org/2000/svg"><path d="M44.105 55.641l3.598-2.079-4.666-3.925 1.068 6.004z" fill="#000"/><path d="M88.558 49.96c0-.885-.435-1.663-1.097-2.15l.014-.025-9.324-5.383 5.367-9.296-.018-.01a2.667 2.667 0 00-.127-2.409 2.668 2.668 0 00-2.025-1.314v-.026H70.58V18.61h-.022a2.667 2.667 0 00-1.314-2.022 2.661 2.661 0 00-2.412-.125l-.013-.023-9.481 5.474-5.25-9.094-.02.011a2.668 2.668 0 00-2.148-1.094c-.885 0-1.664.435-2.151 1.097l-.024-.014-5.337 9.244-9.19-5.306-.011.02a2.665 2.665 0 00-2.408.126 2.665 2.665 0 00-1.315 2.025h-.027v10.674H18.845v.021a2.667 2.667 0 00-2.022 1.314 2.667 2.667 0 00-.126 2.41l-.023.014 5.246 9.087-9.394 5.424.01.02a2.668 2.668 0 00-1.093 2.148c0 .885.435 1.664 1.097 2.151l-.014.024L21.85 57.6l-5.367 9.296.018.01a2.664 2.664 0 00.127 2.408 2.666 2.666 0 002.025 1.314v.027H29.42V81.39h.022c.092.816.549 1.58 1.314 2.022a2.665 2.665 0 002.412.125l.013.023 9.48-5.474 5.25 9.094.02-.01a2.669 2.669 0 002.149 1.093c.885 0 1.664-.435 2.15-1.096l.024.013 5.337-9.244 9.19 5.306.012-.019a2.667 2.667 0 002.408-.127 2.666 2.666 0 001.315-2.025h.027V70.398h10.613v-.02a2.668 2.668 0 002.022-1.315 2.668 2.668 0 00.126-2.41l.023-.013-5.246-9.087 9.394-5.424-.011-.019a2.67 2.67 0 001.094-2.15zM37.537 65.197c-2.23 1.288-4.252 1.464-5.971 1.002l.24-2.697c1.303.377 2.986.375 4.576-.544 1.367-.789 1.658-1.765 1.269-2.438-1.16-2.006-6.992 3.23-9.5-1.11-1.107-1.92-.366-4.472 2.35-6.04 1.834-1.059 3.676-1.383 5.427-.988l-.31 2.623c-1.432-.324-2.907-.004-4.083.674-1.038.6-1.367 1.39-.967 2.082 1.049 1.816 6.965-3.236 9.45 1.07 1.22 2.108.617 4.58-2.481 6.366zm13.943-8.326l-1.854-1.535-4.947 2.856.4 2.374-2.784 1.607L40.08 48.07l3.079-1.777 11.106 8.971-2.785 1.607zm3.753-2.166l-6.661-11.538 2.474-1.429 5.413 9.375 4.878-2.816 1.249 2.163-7.353 4.245zm9.012-5.203l-6.661-11.537 8.164-4.715 1.248 2.162-5.707 3.296 1.398 2.422 5.586-3.226 1.248 2.162-5.586 3.225 1.518 2.63 5.708-3.296 1.249 2.162-8.165 4.715z" fill="#000"/></svg>