<svg width="25" height="25" fill="none" xmlns="http://www.w3.org/2000/svg"><path d="M5.066 16.618a26.607 26.607 0 008.856 6.91c1.294.612 3.026 1.337 4.955 1.462.12.005.234.01.354.01 1.294 0 2.334-.445 3.182-1.362.005-.006.016-.016.02-.026.302-.363.646-.69 1.004-1.036.245-.233.494-.477.734-.726 1.107-1.15 1.107-2.61-.01-3.724l-3.126-3.114c-.53-.549-1.165-.839-1.83-.839-.666 0-1.305.29-1.851.834l-1.862 1.855a9.939 9.939 0 00-.515-.27 6.433 6.433 0 01-.572-.31c-1.695-1.073-3.234-2.471-4.706-4.269-.743-.938-1.243-1.725-1.59-2.528.488-.44.945-.901 1.387-1.352.156-.16.318-.321.479-.482.561-.56.863-1.207.863-1.865 0-.658-.296-1.305-.863-1.865l-1.55-1.543c-.182-.182-.353-.358-.53-.539A28.477 28.477 0 006.839.798C6.304.275 5.675 0 5.01 0c-.66 0-1.295.275-1.851.803L1.213 2.74a3.974 3.974 0 00-1.19 2.55c-.1 1.237.13 2.553.722 4.143.91 2.46 2.283 4.745 4.321 7.185zM1.291 5.398a2.736 2.736 0 01.827-1.761l1.934-1.928c.302-.29.635-.44.957-.44.317 0 .64.15.936.45.348.322.676.659 1.03 1.016.176.181.358.363.54.55l1.55 1.543c.322.321.489.648.489.969 0 .32-.167.647-.49.968-.16.161-.322.327-.483.487-.483.487-.936.948-1.435 1.389l-.026.026c-.431.43-.364.839-.26 1.15l.016.041c.4.958.956 1.87 1.825 2.958 1.56 1.917 3.203 3.403 5.013 4.548.223.145.462.26.686.373.208.104.4.202.572.311l.057.031c.172.088.338.13.505.13.416 0 .686-.264.774-.353l1.945-1.937c.302-.3.63-.461.952-.461.395 0 .717.243.92.461l3.136 3.119c.624.621.618 1.295-.016 1.953a17.31 17.31 0 01-.692.688c-.364.353-.743.715-1.086 1.125-.598.642-1.31.942-2.231.942a4.87 4.87 0 01-.27-.01c-1.706-.109-3.292-.772-4.483-1.337a25.278 25.278 0 01-8.429-6.578c-1.94-2.326-3.245-4.492-4.108-6.813-.535-1.424-.738-2.569-.655-3.61z" fill="#1E1E1E"/></svg>