<svg width="14" height="15" fill="none" xmlns="http://www.w3.org/2000/svg"><g clip-path="url(#clip0)" fill="#fff"><path d="M7 .3c-3.86 0-7 3.14-7 7s3.14 7 7 7 7-3.14 7-7-3.14-7-7-7zm0 13.392A6.398 6.398 0 01.609 7.3 6.398 6.398 0 017 .91a6.398 6.398 0 016.391 6.39A6.398 6.398 0 017 13.692z"/><path d="M9.955 9.825l-2.65-2.65V2.43a.304.304 0 00-.61 0V7.3c0 .08.033.158.09.215l2.739 2.739a.306.306 0 00.43 0 .305.305 0 000-.43z"/></g><defs><clipPath id="clip0"><path fill="#fff" transform="translate(0 .3)" d="M0 0h14v14H0z"/></clipPath></defs></svg>